<?xml version="1.0" encoding="UTF-8" standalone="no"?>
<!-- Created with Inkscape (http://www.inkscape.org/) -->
<svg xmlns:dc="http://purl.org/dc/elements/1.1/" xmlns:cc="http://creativecommons.org/ns#" xmlns:rdf="http://www.w3.org/1999/02/22-rdf-syntax-ns#" xmlns:svg="http://www.w3.org/2000/svg" xmlns="http://www.w3.org/2000/svg" xmlns:sodipodi="http://sodipodi.sourceforge.net/DTD/sodipodi-0.dtd" xmlns:inkscape="http://www.inkscape.org/namespaces/inkscape" width="247.71082mm" height="136.97192mm" viewBox="0 0 877.71549 485.33359" id="svg3833" version="1.1" inkscape:version="0.91 r13725" sodipodi:docname="plaque_finale.svg">
  <defs id="defs3835"/>
  <sodipodi:namedview id="base" pagecolor="#ffffff" bordercolor="#666666" borderopacity="1.0" inkscape:pageopacity="0.0" inkscape:pageshadow="2" inkscape:zoom="1.4" inkscape:cx="604.39118" inkscape:cy="152.17627" inkscape:document-units="mm" inkscape:current-layer="layer1" showgrid="false" fit-margin-top="2" fit-margin-right="2" fit-margin-bottom="2" fit-margin-left="2" inkscape:window-width="2495" inkscape:window-height="1416" inkscape:window-x="65" inkscape:window-y="24" inkscape:window-maximized="1"/>
  <metadata id="metadata3838">
    <rdf:RDF>
      <cc:Work rdf:about="">
        <dc:format>image/svg+xml</dc:format>
        <dc:type rdf:resource="http://purl.org/dc/dcmitype/StillImage"/>
        <dc:title/>
      </cc:Work>
    </rdf:RDF>
  </metadata>
  <g inkscape:label="Calque 1" inkscape:groupmode="layer" id="layer1" transform="translate(56.016362,-258.28259)">
    <g id="g5140">
      <path id="path4606" d="m -45.1191,488.23256 a 3.5433071,3.5433071 0 0 0 -3.5449,3.54297 l 0,3.54296 0,46.77344 10.6289,0 0,46.77149 -10.6289,0 0,46.77148 10.6289,0 0,46.77149 -10.6289,0 0,46.77148 0,3.54297 a 3.5433071,3.5433071 0 0 0 3.5449,3.54297 l 315.3496,0 a 3.5433071,3.5433071 0 0 0 3.5449,-3.54297 l 0,-3.54297 0,-46.77148 -10.6289,0 0,-46.77149 10.6289,0 0,-46.77148 -10.6289,0 0,-46.77149 10.6289,0 0,-46.77344 0,-3.54296 a 3.5433071,3.5433071 0 0 0 -3.5449,-3.54297 l -315.3496,0 z" style="fill:none;stroke:#336699;stroke-width:0.53149605;stroke-miterlimit:4;stroke-dasharray:none" inkscape:connector-curvature="0"/>
      <path id="path4604" d="m -12.8378,495.31849 35.8261,0 0,10.63086 -35.8261,0 0,-10.63086 z" style="fill:none;stroke:#0000ff;stroke-width:0.53149605;stroke-miterlimit:4;stroke-dasharray:none" inkscape:connector-curvature="0"/>
      <path id="path4602" d="m 58.8145,495.31849 35.8281,0 0,10.63086 -35.8281,0 0,-10.63086 z" style="fill:none;stroke:#0000ff;stroke-width:0.53149605;stroke-miterlimit:4;stroke-dasharray:none" inkscape:connector-curvature="0"/>
      <path id="path4600" d="m 130.4688,495.31849 35.8262,0 0,10.63086 -35.8262,0 0,-10.63086 z" style="fill:none;stroke:#0000ff;stroke-width:0.53149605;stroke-miterlimit:4;stroke-dasharray:none" inkscape:connector-curvature="0"/>
      <path id="path4598" d="m 202.1231,495.31849 35.8262,0 0,10.63086 -35.8262,0 0,-10.63086 z" style="fill:none;stroke:#0000ff;stroke-width:0.53149605;stroke-miterlimit:4;stroke-dasharray:none" inkscape:connector-curvature="0"/>
      <path id="path4596" d="m 40.0943,517.30873 a 5.68364,5.68364 0 0 1 5.6836,5.68359 5.68364,5.68364 0 0 1 -5.6836,5.6836 5.68364,5.68364 0 0 1 -5.6836,-5.6836 5.68364,5.68364 0 0 1 5.6836,-5.68359 z" style="fill:none;stroke:#0000ff;stroke-width:0.53149605;stroke-miterlimit:4;stroke-dasharray:none" inkscape:connector-curvature="0"/>
      <path id="path4594" d="m 185.0171,517.30873 a 5.68364,5.68364 0 0 1 5.6836,5.68359 5.68364,5.68364 0 0 1 -5.6836,5.6836 5.68364,5.68364 0 0 1 -5.6836,-5.6836 5.68364,5.68364 0 0 1 5.6836,-5.68359 z" style="fill:none;stroke:#0000ff;stroke-width:0.53149605;stroke-miterlimit:4;stroke-dasharray:none" inkscape:connector-curvature="0"/>
      <path id="path4592" d="m 40.0943,695.82045 a 5.68364,5.68364 0 0 1 5.6836,5.68359 5.68364,5.68364 0 0 1 -5.6836,5.68359 5.68364,5.68364 0 0 1 -5.6836,-5.68359 5.68364,5.68364 0 0 1 5.6836,-5.68359 z" style="fill:none;stroke:#0000ff;stroke-width:0.53149605;stroke-miterlimit:4;stroke-dasharray:none" inkscape:connector-curvature="0"/>
      <path id="path4590" d="m 185.0171,695.82045 a 5.68364,5.68364 0 0 1 5.6836,5.68359 5.68364,5.68364 0 0 1 -5.6836,5.68359 5.68364,5.68364 0 0 1 -5.6836,-5.68359 5.68364,5.68364 0 0 1 5.6836,-5.68359 z" style="fill:none;stroke:#0000ff;stroke-width:0.53149605;stroke-miterlimit:4;stroke-dasharray:none" inkscape:connector-curvature="0"/>
      <path id="path4588" d="m -12.8378,718.54701 35.8261,0 0,10.63086 -35.8261,0 0,-10.63086 z" style="fill:none;stroke:#0000ff;stroke-width:0.53149605;stroke-miterlimit:4;stroke-dasharray:none" inkscape:connector-curvature="0"/>
      <path id="path4586" d="m 58.8145,718.54701 35.8281,0 0,10.63086 -35.8281,0 0,-10.63086 z" style="fill:none;stroke:#0000ff;stroke-width:0.53149605;stroke-miterlimit:4;stroke-dasharray:none" inkscape:connector-curvature="0"/>
      <path id="path4584" d="m 130.4688,718.54701 35.8262,0 0,10.63086 -35.8262,0 0,-10.63086 z" style="fill:none;stroke:#0000ff;stroke-width:0.53149605;stroke-miterlimit:4;stroke-dasharray:none" inkscape:connector-curvature="0"/>
      <path id="box_bottom-8" d="m 202.1231,718.54701 35.8262,0 0,10.63086 -35.8262,0 0,-10.63086 z" style="fill:none;stroke:#0000ff;stroke-width:0.53149605;stroke-miterlimit:4;stroke-dasharray:none" inkscape:connector-curvature="0"/>
    </g>
    <g id="g5155">
      <path id="path5114" d="m 792.35897,517.9319 -49.82032,0 0,63.7812 49.82032,0 0,-63.7812 z" style="color:#000000;display:inline;overflow:visible;visibility:visible;opacity:1;fill:none;fill-opacity:1;fill-rule:nonzero;stroke:#0000ff;stroke-width:0.53149605;stroke-linecap:butt;stroke-linejoin:miter;stroke-miterlimit:4;stroke-dasharray:none;stroke-dashoffset:0;stroke-opacity:1;marker:none;enable-background:accumulate" inkscape:connector-curvature="0"/>
      <path id="path5111" d="m 742.53835,585.0096 0,28.3457 53.1504,0 0,-28.3457 -53.1504,0 z" style="color:#000000;display:inline;overflow:visible;visibility:visible;opacity:1;fill:none;fill-opacity:1;fill-rule:nonzero;stroke:#0000ff;stroke-width:0.53149605;stroke-linecap:butt;stroke-linejoin:miter;stroke-miterlimit:4;stroke-dasharray:none;stroke-dashoffset:0;stroke-opacity:1;marker:none;enable-background:accumulate" inkscape:connector-curvature="0"/>
      <path id="rect5062" d="m 742.41725,619.2459 0,28.3457 0.6309,0 0,23.8028 0,37.205 19.4883,0 20.9023,0 0,-37.205 -20.9023,0 0,-23.8028 33.0312,0 0,-28.3457 -53.1504,0 z" style="color:#000000;display:inline;overflow:visible;visibility:visible;opacity:1;fill:none;fill-opacity:1;fill-rule:nonzero;stroke:#0000ff;stroke-width:0.53149605;stroke-linecap:butt;stroke-linejoin:miter;stroke-miterlimit:4;stroke-dasharray:none;stroke-dashoffset:0;stroke-opacity:1;marker:none;enable-background:accumulate" inkscape:connector-curvature="0"/>
      <path inkscape:connector-curvature="0" id="path4593-5" d="m 814.34678,543.1101 -10.62891,0 0,-36.1426 -21.25195,0 0,-10.6308 -3.55078,0 -12.40234,0 -3.54297,0 -12.40235,0 -3.55078,0 0,10.6289 -21.25195,0 0,36.1406 -10.62891,0 0,46.7715 10.62891,0 0,46.7715 -10.62891,0 0,46.7715 10.62891,0 0,36.1426 21.25195,0 0,10.6308 3.55078,0 12.40235,0 3.54297,0 12.40234,0 3.55078,0 0,-10.6289 21.25195,0 0,-36.1406 10.62891,0 0,-46.7715 -10.62891,0 0,-46.7715 10.62891,0 0,-46.7715 z" style="color:#000000;display:inline;overflow:visible;visibility:visible;opacity:1;fill:none;fill-opacity:1;fill-rule:nonzero;stroke:#336699;stroke-width:0.53149605;stroke-linecap:butt;stroke-linejoin:miter;stroke-miterlimit:4;stroke-dasharray:none;stroke-dashoffset:0;stroke-opacity:1;marker:none;enable-background:accumulate"/>
    </g>
    <g id="g5278">
      <path id="path4790" d="m 749.7515,371.03323 0,-3.54102 0,-7.08789 25.1953,0 14.1719,0 a 3.5433071,3.5433071 0 0 0 3.5449,-3.54297 l 0,-70.86719 a 3.5433071,3.5433071 0 0 0 -3.5449,-3.54296 l -14.1719,0 -25.1953,0 0,-10.63086 -35.8262,0 0,10.63086 -35.8281,0 0,-10.63086 -35.8262,0 0,10.63086 -35.8261,0 0,-10.63086 -35.8282,0 0,10.63086 -35.8261,0 0,-10.63086 -35.8262,0 0,10.63086 -25.1973,0 -14.1719,0 a 3.5433071,3.5433071 0 0 0 -3.5449,3.54296 l 0,70.86719 a 3.5433071,3.5433071 0 0 0 3.5449,3.54297 l 14.1719,0 25.1973,0 0,7.08789 0,3.54102 35.8262,0 0,-3.54102 0,-7.08789 35.8261,0 0,7.08789 0,3.54102 35.8282,0 0,-3.54102 0,-7.08789 35.8261,0 0,7.08789 0,3.54102 35.8262,0 0,-3.54102 0,-7.08789 35.8281,0 0,7.08789 0,3.54102 35.8262,0 z" style="color:#000000;display:inline;overflow:visible;visibility:visible;opacity:1;fill:none;fill-opacity:1;fill-rule:nonzero;stroke:#336699;stroke-width:0.53149605;stroke-linecap:butt;stroke-linejoin:miter;stroke-miterlimit:4;stroke-dasharray:none;stroke-dashoffset:0;stroke-opacity:1;marker:none;enable-background:accumulate" inkscape:connector-curvature="0"/>
      <path id="path4788" d="m 785.5777,339.15237 -10.6309,0 0,-35.44922 10.6309,0 0,35.44922 z" style="color:#000000;display:inline;overflow:visible;visibility:visible;opacity:1;fill:none;fill-opacity:1;fill-rule:nonzero;stroke:#0000ff;stroke-width:0.53149605;stroke-linecap:butt;stroke-linejoin:miter;stroke-miterlimit:4;stroke-dasharray:none;stroke-dashoffset:0;stroke-opacity:1;marker:none;enable-background:accumulate" inkscape:connector-curvature="0"/>
      <path id="rect4530-8-6-8" d="m 473.7671,339.15237 -10.6308,0 0,-1.01172 0,-0.47266 0,-32.48047 0,-0.47265 0,-1.01172 10.6308,0 0,35.44922 z" style="color:#000000;display:inline;overflow:visible;visibility:visible;opacity:1;fill:none;fill-opacity:1;fill-rule:nonzero;stroke:#0000ff;stroke-width:0.53149605;stroke-linecap:butt;stroke-linejoin:miter;stroke-miterlimit:4;stroke-dasharray:none;stroke-dashoffset:0;stroke-opacity:1;marker:none;enable-background:accumulate" inkscape:connector-curvature="0"/>
    </g>
    <g id="g5283">
      <path id="path4790-2" d="m 745.7515,477.61526 0,-3.54102 0,-7.08789 25.1953,0 14.1719,0 a 3.5433071,3.5433071 0 0 0 3.5449,-3.54297 l 0,-70.86719 a 3.5433071,3.5433071 0 0 0 -3.5449,-3.54296 l -14.1719,0 -25.1953,0 0,-10.63086 -35.8262,0 0,10.63086 -35.8281,0 0,-10.63086 -35.8262,0 0,10.63086 -35.8261,0 0,-10.63086 -35.8282,0 0,10.63086 -35.8261,0 0,-10.63086 -35.8262,0 0,10.63086 -25.1973,0 -14.1719,0 a 3.5433071,3.5433071 0 0 0 -3.5449,3.54296 l 0,70.86719 a 3.5433071,3.5433071 0 0 0 3.5449,3.54297 l 14.1719,0 25.1973,0 0,7.08789 0,3.54102 35.8262,0 0,-3.54102 0,-7.08789 35.8261,0 0,7.08789 0,3.54102 35.8282,0 0,-3.54102 0,-7.08789 35.8261,0 0,7.08789 0,3.54102 35.8262,0 0,-3.54102 0,-7.08789 35.8281,0 0,7.08789 0,3.54102 35.8262,0 z" style="color:#000000;display:inline;overflow:visible;visibility:visible;opacity:1;fill:none;fill-opacity:1;fill-rule:nonzero;stroke:#336699;stroke-width:0.53149605;stroke-linecap:butt;stroke-linejoin:miter;stroke-miterlimit:4;stroke-dasharray:none;stroke-dashoffset:0;stroke-opacity:1;marker:none;enable-background:accumulate" inkscape:connector-curvature="0"/>
      <path id="path4788-9" d="m 781.5777,445.7344 -10.6309,0 0,-35.44922 10.6309,0 0,35.44922 z" style="color:#000000;display:inline;overflow:visible;visibility:visible;opacity:1;fill:none;fill-opacity:1;fill-rule:nonzero;stroke:#0000ff;stroke-width:0.53149605;stroke-linecap:butt;stroke-linejoin:miter;stroke-miterlimit:4;stroke-dasharray:none;stroke-dashoffset:0;stroke-opacity:1;marker:none;enable-background:accumulate" inkscape:connector-curvature="0"/>
      <path id="rect4530-8-6-8-3" d="m 469.7671,445.7344 -10.6308,0 0,-1.01172 0,-0.47266 0,-32.48047 0,-0.47265 0,-1.01172 10.6308,0 0,35.44922 z" style="color:#000000;display:inline;overflow:visible;visibility:visible;opacity:1;fill:none;fill-opacity:1;fill-rule:nonzero;stroke:#0000ff;stroke-width:0.53149605;stroke-linecap:butt;stroke-linejoin:miter;stroke-miterlimit:4;stroke-dasharray:none;stroke-dashoffset:0;stroke-opacity:1;marker:none;enable-background:accumulate" inkscape:connector-curvature="0"/>
    </g>
    <g id="g5288">
      <path id="path4746-7-2" d="m -29.3881,298.04175 205.5363,0 a 3.543766,3.3587101 0 0 1 3.5435,3.3584 l 0,141.06531 a 3.543766,3.3587101 0 0 1 -3.5435,3.3602 l -205.5363,0 a 7.0875319,6.7174202 0 0 1 -7.0888,-6.7186 l 0,-134.34861 a 7.0875319,6.7174202 0 0 1 7.0888,-6.7167 z" style="color:#000000;display:inline;overflow:visible;visibility:visible;opacity:0.6;fill:none;fill-opacity:1;fill-rule:nonzero;stroke:#0000ff;stroke-width:0.53149605;stroke-linecap:butt;stroke-linejoin:miter;stroke-miterlimit:4;stroke-dasharray:none;stroke-dashoffset:0;stroke-opacity:1;marker:none;enable-background:accumulate" inkscape:connector-curvature="0"/>
      <path id="path4752-7-3" d="m -47.1191,265.63495 0,28.3457 0,155.90621 0,28.3457 237.4023,0 0,-212.59761 -237.4023,0 z" style="color:#000000;display:inline;overflow:visible;visibility:visible;opacity:0.6;fill:none;fill-opacity:1;fill-rule:nonzero;stroke:#336699;stroke-width:0.53149605;stroke-linecap:butt;stroke-linejoin:miter;stroke-miterlimit:4;stroke-dasharray:none;stroke-dashoffset:0;stroke-opacity:1;marker:none;enable-background:accumulate" inkscape:connector-curvature="0"/>
      <rect y="274.49139" x="66.266258" height="10.629921" width="10.629921" id="rect4889" style="color:#000000;clip-rule:nonzero;display:inline;overflow:visible;visibility:visible;opacity:1;isolation:auto;mix-blend-mode:normal;color-interpolation:sRGB;color-interpolation-filters:linearRGB;solid-color:#000000;solid-opacity:1;fill:none;fill-opacity:1;fill-rule:evenodd;stroke:#0000ff;stroke-width:0.53149605;stroke-linecap:butt;stroke-linejoin:round;stroke-miterlimit:4;stroke-dasharray:none;stroke-dashoffset:0;stroke-opacity:1;color-rendering:auto;image-rendering:auto;shape-rendering:auto;text-rendering:auto;enable-background:accumulate"/>
      <rect y="458.74335" x="66.266258" height="10.629921" width="10.629921" id="rect4889-3" style="color:#000000;clip-rule:nonzero;display:inline;overflow:visible;visibility:visible;opacity:1;isolation:auto;mix-blend-mode:normal;color-interpolation:sRGB;color-interpolation-filters:linearRGB;solid-color:#000000;solid-opacity:1;fill:none;fill-opacity:1;fill-rule:evenodd;stroke:#0000ff;stroke-width:0.53149605;stroke-linecap:butt;stroke-linejoin:round;stroke-miterlimit:4;stroke-dasharray:none;stroke-dashoffset:0;stroke-opacity:1;color-rendering:auto;image-rendering:auto;shape-rendering:auto;text-rendering:auto;enable-background:accumulate"/>
      <path sodipodi:type="star" style="color:#000000;display:inline;overflow:visible;visibility:visible;opacity:1;fill:none;fill-opacity:1;fill-rule:nonzero;stroke:#0000ff;stroke-width:0.53149605;stroke-linecap:butt;stroke-linejoin:miter;stroke-miterlimit:4;stroke-dasharray:none;stroke-dashoffset:0;stroke-opacity:1;marker:none;enable-background:accumulate" id="path4205-3-2-9-2-8-5-7" sodipodi:sides="6" sodipodi:cx="113.92471" sodipodi:cy="461.19012" sodipodi:r1="11.353838" sodipodi:r2="9.8327131" sodipodi:arg1="1.5707963" sodipodi:arg2="2.0943951" inkscape:flatsided="true" inkscape:rounded="0" inkscape:randomized="0" d="m 113.92471,472.54396 -9.83271,-5.67692 0,-11.35383 9.83271,-5.67692 9.83272,5.67692 0,11.35383 z"/>
      <path sodipodi:type="star" style="color:#000000;display:inline;overflow:visible;visibility:visible;opacity:1;fill:none;fill-opacity:1;fill-rule:nonzero;stroke:#0000ff;stroke-width:0.53149605;stroke-linecap:butt;stroke-linejoin:miter;stroke-miterlimit:4;stroke-dasharray:none;stroke-dashoffset:0;stroke-opacity:1;marker:none;enable-background:accumulate" id="path4205-3-2-9-2-9-4-9" sodipodi:sides="6" sodipodi:cx="-34.539894" sodipodi:cy="461.19012" sodipodi:r1="11.353838" sodipodi:r2="9.8327131" sodipodi:arg1="1.5707963" sodipodi:arg2="2.0943951" inkscape:flatsided="true" inkscape:rounded="0" inkscape:randomized="0" d="m -34.539894,472.54396 -9.832712,-5.67692 0,-11.35383 9.832712,-5.67692 9.832712,5.67692 0,11.35383 z"/>
      <path sodipodi:type="star" style="color:#000000;display:inline;overflow:visible;visibility:visible;opacity:1;fill:none;fill-opacity:1;fill-rule:nonzero;stroke:#0000ff;stroke-width:0.53149605;stroke-linecap:butt;stroke-linejoin:miter;stroke-miterlimit:4;stroke-dasharray:none;stroke-dashoffset:0;stroke-opacity:1;marker:none;enable-background:accumulate" id="path4205-3-2-9-2-92-2" sodipodi:sides="6" sodipodi:cx="-34.539894" sodipodi:cy="282.67844" sodipodi:r1="11.353838" sodipodi:r2="9.8327131" sodipodi:arg1="1.5707963" sodipodi:arg2="2.0943951" inkscape:flatsided="true" inkscape:rounded="0" inkscape:randomized="0" d="m -34.539894,294.03227 -9.832712,-5.67691 0,-11.35384 9.832712,-5.67692 9.832712,5.67692 0,11.35383 z"/>
      <path sodipodi:type="star" style="color:#000000;display:inline;overflow:visible;visibility:visible;opacity:1;fill:none;fill-opacity:1;fill-rule:nonzero;stroke:#0000ff;stroke-width:0.53149605;stroke-linecap:butt;stroke-linejoin:miter;stroke-miterlimit:4;stroke-dasharray:none;stroke-dashoffset:0;stroke-opacity:1;marker:none;enable-background:accumulate" id="path4205-3-2-9-2-2-5-0" sodipodi:sides="6" sodipodi:cx="113.92471" sodipodi:cy="282.67844" sodipodi:r1="11.353838" sodipodi:r2="9.8327131" sodipodi:arg1="1.5707963" sodipodi:arg2="2.0943951" inkscape:flatsided="true" inkscape:rounded="0" inkscape:randomized="0" d="m 113.92471,294.03227 -9.83271,-5.67691 0,-11.35384 9.83271,-5.67692 9.83272,5.67692 0,11.35383 z"/>
    </g>
    <g id="g5226">
      <path inkscape:connector-curvature="0" id="path4606-0" d="m 285.32026,488.23256 a 3.5433071,3.5433071 0 0 0 -3.5449,3.54297 l 0,3.54297 0,46.77343 10.6289,0 0,46.77149 -10.6289,0 0,46.77148 10.6289,0 0,46.77149 -10.6289,0 0,46.77148 0,3.54297 a 3.5433071,3.5433071 0 0 0 3.5449,3.54297 l 315.3496,0 a 3.5433071,3.5433071 0 0 0 3.5449,-3.54297 l 0,-3.54297 0,-46.77148 -10.6289,0 0,-46.77149 10.6289,0 0,-46.77148 -10.6289,0 0,-46.77149 10.6289,0 0,-46.77343 0,-3.54297 a 3.5433071,3.5433071 0 0 0 -3.5449,-3.54297 l -315.3496,0 z" style="fill:none;stroke:#336699;stroke-width:0.53149605;stroke-miterlimit:4;stroke-dasharray:none"/>
      <path inkscape:connector-curvature="0" id="path4604-8" d="m 317.60156,495.3185 35.8261,0 0,10.63086 -35.8261,0 0,-10.63086 z" style="fill:none;stroke:#0000ff;stroke-width:0.53149605;stroke-miterlimit:4;stroke-dasharray:none"/>
      <path inkscape:connector-curvature="0" id="path4602-9" d="m 389.25386,495.3185 35.8281,0 0,10.63086 -35.8281,0 0,-10.63086 z" style="fill:none;stroke:#0000ff;stroke-width:0.53149605;stroke-miterlimit:4;stroke-dasharray:none"/>
      <path inkscape:connector-curvature="0" id="path4600-1" d="m 460.90816,495.3185 35.8262,0 0,10.63086 -35.8262,0 0,-10.63086 z" style="fill:none;stroke:#0000ff;stroke-width:0.53149605;stroke-miterlimit:4;stroke-dasharray:none"/>
      <path inkscape:connector-curvature="0" id="path4598-7" d="m 532.56246,495.3185 35.8262,0 0,10.63086 -35.8262,0 0,-10.63086 z" style="fill:none;stroke:#0000ff;stroke-width:0.53149605;stroke-miterlimit:4;stroke-dasharray:none"/>
      <path inkscape:connector-curvature="0" id="path4588-3" d="m 317.60156,718.54701 35.8261,0 0,10.63086 -35.8261,0 0,-10.63086 z" style="fill:none;stroke:#0000ff;stroke-width:0.53149605;stroke-miterlimit:4;stroke-dasharray:none"/>
      <path inkscape:connector-curvature="0" id="path4586-4" d="m 389.25386,718.54701 35.8281,0 0,10.63086 -35.8281,0 0,-10.63086 z" style="fill:none;stroke:#0000ff;stroke-width:0.53149605;stroke-miterlimit:4;stroke-dasharray:none"/>
      <path inkscape:connector-curvature="0" id="path4584-4" d="m 460.90816,718.54701 35.8262,0 0,10.63086 -35.8262,0 0,-10.63086 z" style="fill:none;stroke:#0000ff;stroke-width:0.53149605;stroke-miterlimit:4;stroke-dasharray:none"/>
      <path inkscape:connector-curvature="0" id="box_bottom-8-9" d="m 532.56246,718.54701 35.8262,0 0,10.63086 -35.8262,0 0,-10.63086 z" style="fill:none;stroke:#0000ff;stroke-width:0.53149605;stroke-miterlimit:4;stroke-dasharray:none"/>
      <path inkscape:connector-curvature="0" id="path48850-1" d="m 475.99908,539.05728 0,0 -4.26782,2.85395 4.83907,0 1.6483,-2.85585 -2.21955,0 z m 4.50977,0 -2.18411,3.78612 2.92272,5.06044 5.84554,0 2.92281,-5.06044 -2.18601,-3.78612 -7.32095,0 z m 9.60927,0 1.6502,2.85585 5.84563,0 1.6483,-2.85585 -9.14413,0 z m 11.43436,0 -2.18421,3.78612 2.92472,5.06044 5.84554,0 2.92091,-5.06044 -2.18421,-3.78612 -7.32275,0 z m 51.70394,0 0.21957,0.3795 4.63255,2.47445 2.64182,0 1.64839,-2.85395 -9.14233,0 z m 11.43255,0 -2.1842,3.78421 1.18507,2.05018 5.6354,3.01026 1.94969,0 2.92091,-5.06044 -2.18411,-3.78421 -7.32276,0 z m 9.61299,0 1.33205,2.30699 0,-2.30699 -1.33205,0 z m -63.11231,0.041 1.6242,2.81299 3.64276,0 -5.26696,-2.81299 z m -40.46495,4.6679 -2.92092,5.06415 2.92282,5.06044 5.84554,0 2.92281,-5.06234 -2.92462,-5.06225 -5.84563,0 z m 21.04362,0 -2.92091,5.06225 2.92282,5.06234 5.84553,0 2.92282,-5.06234 -2.92463,-5.06225 -5.84563,0 z m 21.04553,0 -2.92281,5.06415 2.92462,5.06044 0.0591,0 -0.42046,-1.71726 a 1.530948,1.33981 76.261083 0 1 -0.1265,-0.34787 1.530948,1.33981 76.261083 0 1 0.93398,-1.80652 1.530948,1.33981 76.261083 0 1 0.22881,-0.0314 1.530948,1.33981 76.261083 0 1 1.43626,1.20184 1.530948,1.33981 76.261083 0 1 0.0114,0.0276 l 0.65297,2.67353 3.0698,0 2.92091,-5.06235 -2.92282,-5.06225 -5.84553,0 z m 62.82016,0.54695 -2.60648,4.5153 0.87626,1.51999 1.73022,0.92283 0,-6.95812 z m -107.52131,0.0172 -5.34145,3.57207 3.27812,0 2.06333,-3.57207 z m 53.28719,0.21947 1.93673,3.3526 4.34231,0 -6.27904,-3.3526 z m -61.19234,5.21113 -2.92272,5.06235 2.92272,5.06225 5.84554,0 2.92281,-5.06416 -2.92281,-5.06044 -5.84554,0 z m 21.04363,0 -2.92272,5.06416 2.78688,4.8223 c 2.15096,-0.3714 4.34565,-0.62449 6.56748,-0.77204 l 2.33671,-4.05207 -2.92282,-5.06235 -5.84553,0 z m 21.04362,0 -2.92091,5.06235 2.59352,4.493 c 1.32281,0.16003 2.64315,0.34864 3.959,0.56925 l 2.21583,0 2.92272,-5.06225 -2.92462,-5.06235 -5.84554,0 z m 21.04553,0 -2.92281,5.06416 2.92281,5.06044 5.84554,0 2.92272,-5.06225 -2.92272,-5.06235 -5.84554,0 z m 8.27341,0.24185 2.24555,3.88842 5.03624,0 -7.28179,-3.88842 z m -75.00799,2.02237 -2.7926,1.86605 1.71536,0 1.07724,-1.86605 z m 85.22565,3.43253 2.55808,4.42785 5.73581,0 -8.29389,-4.42785 z m -90.79399,0.29024 -2.19906,1.46979 -2.07448,3.59246 2.92282,5.06235 5.84554,0 2.92281,-5.06416 -2.92281,-5.06044 -4.49482,0 z m 19.69291,0 -2.92282,5.06416 1.37301,2.37576 c 3.12066,-1.38187 6.43155,-2.4211 9.87351,-3.146 l -2.47817,-4.29392 -5.84553,0 z m 21.04362,0 -1.73584,3.00836 c 0.8554,-0.0276 1.71203,-0.0438 2.57304,-0.041 2.29604,0.01 4.60874,0.13059 6.92087,0.34235 l -1.91253,-3.30975 -5.84554,0 z m 21.04363,0 -2.83347,4.91346 c 1.62477,0.34921 3.2384,0.73576 4.83154,1.16841 l -1.48646,-6.08187 -0.51161,0 z m 3.22792,0 1.69116,6.91716 c 0.78757,0.24176 1.56686,0.49638 2.34223,0.75719 l 1.50885,-2.6121 -2.92463,-5.06225 -2.61761,0 z m 17.81751,0 -2.92272,5.06225 2.92463,5.06235 5.84553,0 2.92091,-5.06416 -2.92272,-5.06044 -5.84563,0 z m -88.75114,3.96272 -0.26424,0.17489 0.16184,0 0.1024,-0.17489 z m 106.93339,1.20003 2.867,4.96185 5.84554,0 0.13764,-0.23814 -8.85018,-4.72371 z m -109.96594,0.82605 -4.7461,3.17391 -1.0902,1.88834 2.92282,5.06235 5.84554,0 2.92281,-5.06416 -2.92472,-5.06044 -2.93015,0 z m 81.26102,0 -1.35815,2.35538 c 3.2766,1.18326 6.41888,2.52989 9.37294,4.01483 l 0.75537,-1.30796 -2.92462,-5.06225 -5.84554,0 z m 21.04915,0 -2.92272,5.06416 2.92463,5.06044 5.84553,0 2.92092,-5.06235 -2.92282,-5.06225 -5.84554,0 z m -84.18002,0 -2.92282,5.06235 1.48836,2.57856 4.2121,-2.81479 c 1.40597,-0.93608 2.87709,-1.77347 4.39442,-2.53027 l -1.32653,-2.29585 -5.84553,0 z m 102.43486,4.83164 -0.13212,0.2288 2.92281,5.06235 5.84554,0 0.30139,-0.52095 -8.93762,-4.7702 z m -129.5213,1.15535 -7.29666,4.87813 -0.10611,0.18422 2.92472,5.06225 5.84554,0 2.92091,-5.06416 -2.92282,-5.06044 -1.36558,0 z m 100.74189,0 -0.74423,1.28928 c 3.11942,1.66935 5.99623,3.49149 8.55812,5.42699 l 0.95446,-1.65392 -2.92282,-5.06235 -5.84553,0 z m 21.04734,0 -2.92282,5.06235 2.92472,5.06225 5.84554,0 2.92091,-5.06416 -2.92281,-5.06044 -5.84554,0 z m -105.22556,0 -2.92091,5.06225 1.92559,3.33394 8.43343,-5.63902 -1.59257,-2.75717 -5.84554,0 z m 123.64595,4.54692 -0.29768,0.51533 2.59905,4.50044 0,-3.78602 -2.30137,-1.22975 z m -134.16681,1.44188 -2.92091,5.06225 2.3609,4.08932 8.43344,-5.64093 -2.02789,-3.51064 -5.84554,0 z m 105.22556,0 -1.13116,1.96093 c 2.96778,2.4253 5.43194,5.00967 7.2576,7.67996 l 2.64191,-4.58045 -2.92282,-5.06044 -5.84553,0 z m 21.04362,0 -2.92091,5.06416 2.92272,5.06044 5.84554,0 2.92101,-5.06235 -2.92282,-5.06225 -5.84554,0 z m -141.41336,0.0934 -8.43524,5.64093 2.5376,4.3907 5.84563,0 2.92092,-5.06415 -2.86891,-4.96748 z m 72.21367,2.08933 c -1.80614,-0.0171 -3.60522,0.10536 -5.36926,0.37398 l 0.9116,1.57762 5.84553,0 1.06239,-1.84186 c -0.81568,-0.0619 -1.63382,-0.10183 -2.45026,-0.10974 z m 4.61017,0.33483 -1.46969,2.54513 2.92462,5.06234 5.84554,0 2.81298,-4.87631 c -3.12142,-1.31233 -6.57233,-2.26136 -10.11345,-2.73116 z m -12.04456,0.42979 c -3.06237,0.68955 -5.97194,1.863 -8.54698,3.61675 l -0.7609,0.50971 1.76375,3.05303 5.84553,0 2.92091,-5.06225 -1.22231,-2.11724 z m -60.15596,3.03998 -2.92282,5.06235 2.92463,5.06225 5.84554,0 2.92091,-5.06225 -0.91531,-0.48933 0.45579,-0.3051 -2.4632,-4.26792 -5.84554,0 z m 63.13269,0 -2.92282,5.06235 2.92472,5.06225 5.56272,0 0.45209,-0.29577 2.75164,-4.76839 -2.92282,-5.06044 -5.84553,0 z m 63.13649,0 -2.92281,5.06225 2.92462,5.06235 5.84554,0 2.92091,-5.06235 -2.92272,-5.06225 -5.84554,0 z m -42.13935,0.08 -2.87443,4.98224 2.92272,5.06235 5.84563,0 2.10419,-3.64276 -0.22327,-0.90978 c -1.99494,-2.11162 -4.68,-3.98434 -7.77484,-5.49205 z m 62.85921,0.48 -2.59724,4.50043 2.59724,4.49853 0,-8.99896 z m -161.6978,0.28833 -8.43534,5.63903 2.106,3.64466 5.84553,0 2.92091,-5.06235 -2.4371,-4.22134 z m 63.90844,1.34139 -8.426,5.65398 1.31538,2.27898 5.84554,0 2.92281,-5.06225 -1.65773,-2.87071 z m -59.72064,3.79716 -2.92272,5.06235 2.92463,5.06225 1.09953,0 3.01769,-2.01112 2.2065,1.18326 2.44273,-4.23439 -2.92263,-5.06235 -5.84573,0 z m 63.13279,0 -2.92282,5.06235 1.48284,2.56923 6.74037,-4.50596 3.39347,1.80652 -2.84833,-4.93214 -5.84553,0 z m 84.18002,0 -2.92272,5.06235 2.92463,5.06225 5.84554,0 2.92091,-5.06415 -2.92282,-5.06045 -5.84554,0 z m -63.1364,0 -0.8391,1.45303 1.853,-1.20565 7.04004,3.5777 -2.2084,-3.82508 -5.84554,0 z m -63.1365,0.01 -2.91719,5.05492 2.92281,5.06225 5.84554,0 2.92091,-5.06416 -0.30882,-0.5339 -8.46325,-4.51911 z m -35.31326,1.5982 -8.43534,5.63902 1.67069,2.89119 5.84553,0 2.92091,-5.06235 -2.00179,-3.46786 z m 63.91779,1.35624 -8.42601,5.65398 0.87073,1.50875 5.84554,0 2.92281,-5.06225 -1.21307,-2.10048 z m 53.68344,0.31625 -1.02875,1.78423 0.54324,0.94141 0.39255,-0.24748 0.79624,0.39817 -0.70328,-2.87633 z m -92.80511,2.71068 -2.45026,4.24372 8.9302,4.78516 2.28841,-3.96653 -2.92281,-5.06235 -5.84554,0 z m 21.04362,0 -2.92091,5.06235 2.92282,5.06225 5.84554,0 2.92272,-5.06225 -0.76833,-1.33024 -0.14889,0.10049 -7.17758,-3.8326 -0.67537,0 z m 21.04554,0 -2.92282,5.06235 1.91816,3.32279 8.43524,-5.63902 -1.58505,-2.74612 -5.84553,0 z m 21.19803,0 1.40835,0.74985 1.15164,-0.74985 -2.55999,0 z m 22.67516,0 3.53674,1.79728 1.1442,-0.72194 -0.62135,-1.07534 -4.05959,0 z m 40.30683,0 -0.84834,1.46979 c 0.0629,1.85605 -0.23833,3.71315 -0.94331,5.54977 l 1.79356,3.10504 5.84554,0 2.92091,-5.06416 -2.92282,-5.06044 -5.84554,0 z m -147.30909,0.01 -2.92272,5.06234 2.92462,5.06225 2.61581,0 5.24648,-3.49577 0.90416,-1.56838 -2.92282,-5.06044 -5.84553,0 z m 168.02714,0.55629 -2.59533,4.49853 2.59533,4.49491 0,-8.99344 z m -181.86889,1.79347 -8.43534,5.63902 1.23346,2.13581 5.84554,0 2.92281,-5.06225 -1.56647,-2.71258 z m 45.40442,3.6298 -2.29584,3.97577 6.38135,3.41947 -0.4037,0.26977 3.69858,-0.19718 1.38797,-2.40558 -2.92282,-5.06225 -5.84554,0 z m 21.04363,0 -2.92091,5.06225 1.02504,1.7767 9.60184,-0.51342 0.17679,0.27157 0.8874,-1.53676 -2.92462,-5.06034 -5.84554,0 z m 105.22556,0 -2.92282,5.06225 2.92463,5.06235 5.84554,0 2.921,-5.06235 -2.92281,-5.06225 -5.84554,0 z m -168.35272,0.01 -2.92282,5.06235 2.92463,5.06225 4.15075,0 2.75155,-1.83443 1.86424,-3.22973 -2.92282,-5.06044 -5.84553,0 z m -13.40643,3.10514 -8.43534,5.63902 0.79814,1.38044 5.84554,0 2.92281,-5.06225 -1.13115,-1.95721 z m 168.41406,0.0952 c -1.34834,2.37053 -3.42805,4.69009 -6.30686,6.91535 l 4.45395,0 2.92282,-5.06425 -1.06981,-1.8511 z m -102.40133,2.77584 -0.78329,1.35625 7.19064,-0.38512 -0.56181,-0.97113 -5.84554,0 z m 21.04363,0 -1.42693,2.47435 0.89492,1.37492 0,-0.0152 4.50587,-2.93206 -1.69116,-0.90226 -2.2827,0 z m 84.18193,0 -2.92282,5.06225 2.92463,5.06235 5.84553,0 2.92092,-5.06235 -2.92272,-5.06225 -5.84554,0 z m -168.35272,0.01 -2.92282,5.06235 2.92282,5.06225 5.69112,0 0.25119,-0.16555 2.82613,-4.8967 -2.92291,-5.06235 -5.84553,0 z m 189.06886,0.5582 -2.59533,4.49482 0.11345,0.19537 2.48188,-1.65954 0,-3.03065 z m -202.03998,3.30412 -1.79718,1.20184 0,4.31631 2.49112,-4.31812 -0.69394,-1.20003 z m 170.80107,2.11906 -2.92281,5.06234 2.92462,5.06225 5.84563,0 2.92092,-5.06225 -2.92282,-5.06234 -5.84554,0 z m 21.04363,0 -2.92282,5.06234 0.54886,0.94884 8.43344,-5.63912 -0.21394,-0.37206 -5.84554,0 z m -189.39635,0.0114 -2.92281,5.06044 2.92281,5.06415 5.84554,0 2.92281,-5.06415 -2.92281,-5.06044 -5.84554,0 z m 21.04363,0 -0.85768,1.48465 2.22888,-1.48465 -1.3712,0 z m 144.33236,1.17211 -4.41118,2.95073 2.70887,0 1.70231,-2.95073 z m -107.48978,0.47257 -3.706,2.47816 2.44654,0 1.25946,-2.47816 z m -5.27991,4.33297 -2.92281,5.06235 1.82328,3.15533 4.17666,-8.21768 -3.07713,0 z m 105.58458,0 -0.59163,0.39626 -2.69392,4.6679 2.92282,5.06044 5.84553,0 2.92272,-5.06225 -2.92272,-5.06235 -5.4828,0 z m 20.68461,0 -2.92282,5.06235 0.98418,1.70231 8.43344,-5.63903 -0.64926,-1.12563 -5.84554,0 z m -168.35272,0.01 -1.81767,3.14971 4.72553,-3.14971 -2.90786,0 z m -14.7683,0.74413 0,8.63623 2.49302,-4.31992 -2.49302,-4.31631 z m 53.87882,0.4317 -4.41299,2.95063 2.71068,0 1.70231,-2.95063 z m 104.23766,1.70412 -1.86424,1.24651 1.14421,0 0.72003,-1.24651 z m -111.42468,3.10142 -0.58782,0.39254 -2.69582,4.66971 2.92462,5.06235 4.58788,0 1.24089,-0.83349 2.51913,-4.95442 -2.50417,-4.33669 -5.48471,0 z m 106.78651,0 -3.13857,2.09857 -1.70974,2.96368 2.92272,5.06235 5.84563,0 2.92272,-5.06235 -2.92462,-5.06225 -3.91814,0 z m 19.12175,0 -2.92272,5.06225 1.41769,2.45587 8.43524,-5.63912 -1.08458,-1.879 -5.84563,0 z m -168.35262,0.01 -2.92282,5.06416 2.92282,5.06044 5.84553,0 2.7646,-4.78696 -6.77209,-3.6037 2.60295,-1.73394 -4.4409,0 z m 38.14301,2.8669 -1.89577,1.267 1.16459,0 0.73118,-1.267 z m 99.31677,3.11066 -1.08467,0.70518 -2.51341,4.35717 2.92272,5.06225 5.84554,0 2.92091,-5.06225 -2.92272,-5.06235 -5.16837,0 z m 20.36646,0 -2.92101,5.06235 1.85491,3.21296 8.43534,-5.63902 -1.52371,-2.63629 -5.84553,0 z m -124.35112,0.01 -3.10876,2.07999 -1.72279,2.98417 2.92463,5.06044 5.84553,0 2.92092,-5.06225 -2.92282,-5.06235 -3.93671,0 z m -23.11429,0.28091 -2.76088,4.78144 2.92272,5.06225 5.84553,0 2.32566,-4.02978 -1.12934,-1.73946 a 1.530948,1.33981 57.002506 0 1 -0.23624,-0.28653 1.530948,1.33981 57.002506 0 1 -0.0667,-0.11535 l -6.90039,-3.67257 z m -14.60827,0.46332 0,8.63995 2.49483,-4.32183 -2.49483,-4.31812 z m 136.95931,2.33671 -1.61115,1.04743 1.00657,0 0.60458,-1.04743 z m -4.45576,2.89862 -3.19439,2.0799 -1.72278,2.98426 2.92462,5.06044 5.84554,0 2.92091,-5.06235 -2.92272,-5.06225 -3.85118,0 z m 19.04917,0 -2.92091,5.06225 2.29023,3.96653 8.43534,-5.63912 -1.95903,-3.38966 -5.84563,0 z m -105.21994,0 -1.16097,2.00932 2.99169,-2.00932 -1.83072,0 z m -42.08534,0.01 -2.67725,4.63818 8.9321,4.78134 2.51531,-4.35907 -2.92463,-5.06045 -5.84553,0 z m 24.51892,0 -1.5219,1.01771 -0.8651,-0.45951 5.44374,8.38133 2.23812,-3.87718 -2.92281,-5.06235 -2.37205,0 z m -4.61207,1.97398 -1.78423,3.09018 2.92281,5.06044 4.15438,0 -5.29296,-8.15062 z m 99.1474,4.00559 -5.30601,3.453 -0.93016,1.61115 2.92462,5.06044 5.84363,0 2.92282,-5.06234 -2.92282,-5.06225 -2.53208,0 z m 17.73017,0 -2.92272,5.06225 2.72735,4.72 8.43344,-5.63722 -2.39253,-4.14503 -5.84554,0 z m -126.25985,0.01 -2.52093,4.36841 0.57487,0.30691 -0.86692,0.57868 2.81298,4.8706 5.84554,0 2.92281,-5.06225 -2.92281,-5.06235 -5.84554,0 z m 21.04363,0 -2.78136,4.81678 3.44738,5.30782 5.18142,0 2.92091,-5.06416 -0.74423,-1.28737 -5.69113,-3.03998 1.0902,-0.73309 -3.42319,0 z m 56.31783,2.02237 -1.06972,2.10419 3.20373,0 0.45579,-0.78891 -2.5898,-1.31528 z m 4.36089,2.21392 -0.47247,0.81672 2.92272,5.06235 5.84554,0 0.74423,-1.28928 -9.04002,-4.58979 z m -6.37392,1.74508 -0.11345,0.22519 6.37211,3.42881 -2.11162,-3.654 -4.14704,0 z m 23.97578,0 -6.20656,4.03911 -0.58229,-0.29586 -0.76281,1.32091 2.92282,5.06044 5.84553,0 2.92282,-5.06225 -2.92282,-5.06235 -1.21669,0 z m 16.41478,0 -2.92281,5.06235 2.92462,5.06225 0.85216,0 7.81951,-5.2279 -2.82794,-4.8967 -5.84554,0 z m -105.21622,0.01 -2.92282,5.06225 0.0371,0.0648 1.00456,-0.67536 8.4242,4.46329 2.16553,-3.75259 -3.35251,-5.16274 -5.35621,0 z m -14.98786,0.36835 -8.43534,5.63721 2.37957,4.12084 5.84554,0 2.92272,-5.06225 -2.71249,-4.6958 z m 109.68322,5.6093 -2.92281,5.06225 2.92281,5.06235 2.41854,0 5.57958,-3.7302 0.77014,-1.33396 -2.92272,-5.06044 -5.84554,0 z m -19.27254,0 4.90232,2.6382 -7.93297,5.3041 1.25957,2.1823 5.84553,0 2.92272,-5.06225 -2.92462,-5.06235 -4.07255,0 z m -85.94559,0.01 -2.92091,5.06234 0.48923,0.84654 8.42048,-5.66141 -0.14326,-0.24747 -5.84554,0 z m 22.9134,0 2.22697,3.42881 0.0581,-0.10792 1.68745,-3.32089 -3.97206,0 z m -2.46883,1.04181 -1.62611,2.81489 4.81116,2.54884 0.13021,-0.25671 -3.31526,-5.10702 z m -34.99521,0.0781 -0.22137,0.14878 0,8.1191 2.49855,-4.32746 -2.27718,-3.94042 z m 109.24601,4.85764 -2.92091,5.06225 2.92272,5.06235 3.98329,0 3.03255,-2.0279 1.75251,-3.03626 -2.92463,-5.06044 -5.84553,0 z m -105.21623,0.01 -2.92091,5.06226 0.9395,1.62791 8.42229,-5.66141 -0.59534,-1.02876 -5.84554,0 z m 91.78369,3.04922 -8.43343,5.64093 0.82415,1.42702 5.84563,0 2.92272,-5.06234 -1.15907,-2.00561 z m -15.0473,2.93025 -4.18047,8.22511 1.09763,1.89949 5.84554,0 2.921,-5.06225 -1.97398,-3.41958 -3.07531,-1.64277 -0.63441,0 z m 17.95898,0 -2.92092,5.06235 2.92273,5.06225 5.54605,0 0.48742,-0.3274 2.73488,-4.73676 -2.92463,-5.06044 -5.84553,0 z m -60.36067,0.48742 -4.94699,3.2986 -0.74232,1.28557 2.92281,5.06234 5.84554,0 1.50322,-2.60466 -4.58226,-7.04185 z m -38.58585,0.25671 0,1.49218 0.62135,-0.41674 -0.62135,-1.07544 z m 109.4729,5.25029 -0.75347,1.30605 1.95169,-1.30605 -1.19822,0 z m -21.04353,0 -2.92282,5.06235 2.92282,5.06225 5.84554,0 2.92272,-5.06225 -2.92272,-5.06235 -5.84554,0 z m -58.11702,0.01 -7.83989,5.2261 2.82975,4.8985 5.84553,0 2.92091,-5.06225 -2.92281,-5.06235 -0.83349,0 z m 44.73659,3.13867 -9.78415,0.52276 -0.80186,1.39159 2.92281,5.06234 5.84554,0 2.92272,-5.06415 -1.10506,-1.91254 z m -30.66965,0.24738 -0.96189,1.66697 2.92472,5.06234 5.84553,0 2.92092,-5.06234 -0.21204,-0.36836 -0.787,1.54981 -4.69771,0.25109 -1.28185,-1.96645 -2.87443,0.21204 -0.87625,-1.3451 z m 18.51716,0.40188 -6.04281,0.32368 0.01,0.01 5.84554,0 0.19165,-0.33301 z m -6.03347,2.18973 -2.92091,5.06235 2.92272,5.06225 5.84563,0 2.92272,-5.06416 -2.92462,-5.06044 -5.84554,0 z m 21.04543,0 -2.92272,5.06235 2.92272,5.06225 5.84554,0 2.92282,-5.06225 -2.92282,-5.06235 -5.84554,0 z m 21.04363,0 -1.73765,3.01026 4.50234,-3.01026 -2.76469,0 z m -63.12897,0.01 -2.92091,5.06225 2.92091,5.06044 5.84925,0 2.92091,-5.06044 -2.92453,-5.06225 -5.84554,0 z m -15.00091,0.34044 -2.86881,1.91254 5.50509,2.96377 0.0895,-0.1545 -2.72563,-4.72181 z m 25.51996,5.64093 -2.39072,4.14132 10.62878,0 -2.39253,-4.14132 -5.84553,0 z m 21.04362,0 -2.38891,4.14132 10.62698,0 -2.39253,-4.14132 -5.84554,0 z m 21.04544,0 -2.39072,4.14132 0.52095,0 6.19532,-4.14132 -4.32555,0 z m -63.12897,0.01 -0.0968,0.16737 7.36371,3.96462 0.96561,0 -2.38691,-4.13199 -5.84554,0 z" style="display:inline;fill:none;stroke:#0000ff;stroke-width:0.53149605;stroke-miterlimit:4;stroke-dasharray:none;enable-background:new"/>
      <path inkscape:connector-curvature="0" id="path4666-1-9" d="m 495.98101,540.87696 0.3955,-0.73728" style="fill:none;fill-rule:evenodd;stroke:#ff0000;stroke-width:0.53149605;stroke-linecap:butt;stroke-linejoin:miter;stroke-miterlimit:4;stroke-dasharray:none;stroke-opacity:1"/>
      <path inkscape:connector-curvature="0" id="path4656-4-4" d="m 448.02508,672.78326 -8.50021,-13.05922 28.24293,-55.56151 8.50021,13.05923 z" style="fill:none;fill-rule:evenodd;stroke:#ff0000;stroke-width:0.53149605;stroke-linecap:butt;stroke-linejoin:miter;stroke-miterlimit:4;stroke-dasharray:none;stroke-opacity:1"/>
      <path inkscape:connector-curvature="0" id="path4658-9-9" d="m 467.7678,604.16253 -31.12183,1.6623 -25.03007,49.24093 0,0" style="fill:none;fill-rule:evenodd;stroke:#ff0000;stroke-width:0.53149605;stroke-linecap:butt;stroke-linejoin:miter;stroke-miterlimit:4;stroke-dasharray:none;stroke-opacity:1"/>
      <path sodipodi:nodetypes="ccccccc" inkscape:connector-curvature="0" id="path4662-2-0" d="m 423.68886,674.0253 0,0 0.78557,-0.0419 1.2828,1.96569 -0.42465,0.0229 -4.27306,0.22823 -1.2828,-1.96569 0.8532,-0.0343" style="fill:none;fill-rule:evenodd;stroke:#ff0000;stroke-width:0.53149605;stroke-linecap:butt;stroke-linejoin:miter;stroke-miterlimit:4;stroke-dasharray:none;stroke-opacity:1"/>
      <path inkscape:connector-curvature="0" id="path4668-0-9" d="m 424.47443,673.98357 4.26439,-8.36466 1.2828,1.96569 -4.26439,8.36447" style="fill:none;fill-rule:evenodd;stroke:#ff0000;stroke-width:0.53149605;stroke-linecap:butt;stroke-linejoin:miter;stroke-miterlimit:4;stroke-dasharray:none;stroke-opacity:1"/>
      <path inkscape:connector-curvature="0" id="path4670-6-1" d="m 428.73882,665.61891 -4.69771,0.25091 -2.46349,4.83202" style="fill:none;fill-rule:evenodd;stroke:#ff0000;stroke-width:0.53149605;stroke-linecap:butt;stroke-linejoin:miter;stroke-miterlimit:4;stroke-dasharray:none;stroke-opacity:1"/>
      <path inkscape:connector-curvature="0" id="path4672-8-7" d="m 410.09972,658.0484 -1.69668,3.33794 3.73763,-0.22842" style="fill:none;fill-rule:evenodd;stroke:#ff0000;stroke-width:0.53149605;stroke-linecap:butt;stroke-linejoin:miter;stroke-miterlimit:4;stroke-dasharray:none;stroke-opacity:1"/>
      <path inkscape:connector-curvature="0" id="path4674-9-7" d="m 408.40304,661.38634 8.5002,13.05922 2.87348,-0.21108" style="fill:none;fill-rule:evenodd;stroke:#ff0000;stroke-width:0.53149605;stroke-linecap:butt;stroke-linejoin:miter;stroke-miterlimit:4;stroke-dasharray:none;stroke-opacity:1"/>
      <path inkscape:connector-curvature="0" id="path4676-2-1" d="m 439.52487,659.72404 -24.26164,1.29585" style="fill:none;fill-rule:evenodd;stroke:#ff0000;stroke-width:0.53149605;stroke-linecap:butt;stroke-linejoin:miter;stroke-miterlimit:4;stroke-dasharray:none;stroke-opacity:1"/>
      <path inkscape:connector-curvature="0" id="path4678-6-1" d="m 448.02508,672.78326 -21.23747,1.1344" style="fill:none;fill-rule:evenodd;stroke:#ff0000;stroke-width:0.53149605;stroke-linecap:butt;stroke-linejoin:miter;stroke-miterlimit:4;stroke-dasharray:none;stroke-opacity:1"/>
      <path inkscape:connector-curvature="0" id="path4680-6-5" d="m 470.0546,607.65574 33.11115,-21.54782 27.78332,14.1198 0.8311,15.5594 -52.24242,33.99788 -15.75686,-7.99765 0,0" style="fill:none;fill-rule:evenodd;stroke:#ff0000;stroke-width:0.53149605;stroke-linecap:butt;stroke-linejoin:round;stroke-miterlimit:4;stroke-dasharray:none;stroke-opacity:1"/>
      <path inkscape:connector-curvature="0" id="path4682-4-9" d="m 469.90438,629.74069 8.80226,4.48491 0.83111,15.5594" style="fill:none;fill-rule:evenodd;stroke:#ff0000;stroke-width:0.53149605;stroke-linecap:butt;stroke-linejoin:round;stroke-miterlimit:4;stroke-dasharray:none;stroke-opacity:1"/>
      <path inkscape:connector-curvature="0" id="path4684-9-7" d="m 478.70664,634.2256 52.24243,-33.99788" style="fill:none;fill-rule:evenodd;stroke:#ff0000;stroke-width:0.53149605;stroke-linecap:butt;stroke-linejoin:round;stroke-miterlimit:4;stroke-dasharray:none;stroke-opacity:1"/>
      <path inkscape:connector-curvature="0" id="path4686-5-7" d="m 517.99653,593.6451 3.21334,-2.02961 5.22114,2.61391 0.15413,2.88462 -0.78948,0.50704" style="fill:none;fill-rule:evenodd;stroke:#ff0000;stroke-width:0.53149605;stroke-linecap:butt;stroke-linejoin:round;stroke-miterlimit:4;stroke-dasharray:none;stroke-opacity:1"/>
      <path inkscape:connector-curvature="0" id="path4688-0-6" d="m 523.23862,596.27967 3.19239,-2.05027" style="fill:none;fill-rule:evenodd;stroke:#ff0000;stroke-width:0.53149605;stroke-linecap:butt;stroke-linejoin:round;stroke-miterlimit:4;stroke-dasharray:none;stroke-opacity:1"/>
      <path inkscape:connector-curvature="0" id="rect4783-4-7" d="m 393.51195,629.84033 a 1.530948,1.33981 57.002506 0 0 -0.28862,2.01399 1.530948,1.33981 57.002506 0 0 0.235,0.2869 l 27.6693,42.61107 a 1.530948,1.33981 57.002506 0 0 0.12231,0.22689 1.530948,1.33981 57.002506 0 0 1.95854,0.55477 1.530948,1.33981 57.002506 0 0 0.28872,-2.01408 1.530948,1.33981 57.002506 0 0 -0.15755,-0.20604 l -27.85191,-42.89225 0,0 a 1.530948,1.33981 57.002506 0 0 -0.0171,-0.0257 1.530948,1.33981 57.002506 0 0 -1.95845,-0.55467 z" style="color:#000000;clip-rule:nonzero;display:inline;overflow:visible;visibility:visible;opacity:1;isolation:auto;mix-blend-mode:normal;color-interpolation:sRGB;color-interpolation-filters:linearRGB;solid-color:#000000;solid-opacity:1;fill:none;fill-opacity:1;fill-rule:evenodd;stroke:#ff0000;stroke-width:0.53149605;stroke-linecap:butt;stroke-linejoin:round;stroke-miterlimit:4;stroke-dasharray:none;stroke-dashoffset:0;stroke-opacity:1;color-rendering:auto;image-rendering:auto;shape-rendering:auto;text-rendering:auto;enable-background:accumulate"/>
      <path id="rect4783-8-8-3" d="m 513.34159,550.15445 a 1.530948,1.33981 76.261083 0 0 -0.2288,0.0314 1.530948,1.33981 76.261083 0 0 -0.93398,1.80651 1.530948,1.33981 76.261083 0 0 0.1265,0.34788 l 9.70042,39.67233 3.09399,1.54981 -10.31063,-42.1766 a 1.530948,1.33981 76.261083 0 0 -0.0114,-0.0295 1.530948,1.33981 76.261083 0 0 -1.43626,-1.20184 z" style="color:#000000;clip-rule:nonzero;display:inline;overflow:visible;visibility:visible;opacity:1;isolation:auto;mix-blend-mode:normal;color-interpolation:sRGB;color-interpolation-filters:linearRGB;solid-color:#000000;solid-opacity:1;fill:none;fill-opacity:1;fill-rule:evenodd;stroke:#ff0000;stroke-width:0.53149605;stroke-linecap:butt;stroke-linejoin:round;stroke-miterlimit:4;stroke-dasharray:none;stroke-dashoffset:0;stroke-opacity:1;color-rendering:auto;image-rendering:auto;shape-rendering:auto;text-rendering:auto;enable-background:accumulate" inkscape:connector-curvature="0"/>
      <path inkscape:connector-curvature="0" id="rect4510-1-6" d="m 371.77075,538.90506 0,146.68775 203.89107,0 0,-78.49081 -117.27574,78.40517 -53.99227,0 -14.6157,-7.87152 20.52268,-13.68 -1.8009,-2.76651 1.71155,-3.36737 -14.9711,-7.93296 -23.41568,15.73752 0,-12.93387 12.82785,-8.57108 -12.82785,-6.86696 0,-28.68082 104.20233,-69.66854 -104.25624,0 z m 139.36489,0 64.52618,34.44825 0,-22.23432 -22.86872,-12.21393 -41.65746,0 z m -18.49478,19.65766 c -10.82453,-0.0324 -21.28043,2.2929 -29.62594,7.84924 l -26.48919,17.70968 21.04553,11.239 22.71241,-15.23343 c 12.19697,-8.30713 31.84882,-3.7404 40.14128,4.83344 l -5.70047,-23.31889 c -7.16663,-1.93531 -14.70857,-3.05684 -22.08362,-3.07904 z m 25.00634,3.91805 7.54976,30.8855 1.33214,0.66603 0.15251,2.88557 -0.77767,0.49857 5.14227,2.61399 0.83167,15.56083 -16.28457,10.59716 1.47903,0.78881 26.32363,-17.60177 c 24.48444,-16.0571 3.20068,-38.05166 -25.74877,-46.89469 z m -31.06029,26.18227 -18.35343,12.27156 6.56005,3.49758 18.63433,-12.12457 -6.84095,-3.64457 z m -64.31414,4.98786 -44.36072,29.5645 15.24277,8.11157 a 1.530948,1.33981 57.002506 0 1 0.45389,-1.68374 1.530948,1.33981 57.002506 0 1 1.95912,0.55448 1.530948,1.33981 57.002506 0 1 0.0171,0.0257 l 2.37758,3.66143 1.10887,0.58973 34.85384,-23.30404 2.81851,-5.54415 5.94794,-0.31815 0.59344,-0.39626 -21.012,-11.26138 z m 1.68192,37.13473 -13.97949,9.39342 7.23903,3.86603 6.74046,-13.25945 z m 37.8621,14.86127 -8.8818,17.47345 6.0893,3.25202 18.42039,-12.31614 -15.62789,-8.40933 z" style="color:#000000;clip-rule:nonzero;display:inline;overflow:visible;visibility:visible;opacity:1;isolation:auto;mix-blend-mode:normal;color-interpolation:sRGB;color-interpolation-filters:linearRGB;solid-color:#000000;solid-opacity:1;fill:#4d4d4d;fill-opacity:1;fill-rule:evenodd;stroke:#ff0000;stroke-width:0.53149605;stroke-linecap:butt;stroke-linejoin:miter;stroke-miterlimit:4;stroke-dasharray:none;stroke-dashoffset:0;stroke-opacity:1;color-rendering:auto;image-rendering:auto;shape-rendering:auto;text-rendering:auto;enable-background:accumulate"/>
      <path d="m 511.42851,657.68504 q 0.82253,0 0.82253,0.70755 0,0.66965 -0.82253,0.66965 l -2.8309,0 0,10.3473 q 0,0.4016 -0.26786,0.59287 -0.24871,0.17203 -0.55457,0.17203 -0.30615,0 -0.53562,-0.17203 -0.22957,-0.17212 -0.22957,-0.59287 l 0,-10.3473 -2.86928,0 q -0.44008,0 -0.63145,-0.21042 -0.19108,-0.21052 -0.19108,-0.47828 0,-0.26776 0.19108,-0.47809 0.19137,-0.21041 0.63145,-0.21041 l 7.2878,0 z" style="font-style:normal;font-variant:normal;font-weight:600;font-stretch:normal;font-size:medium;line-height:69.99999881%;font-family:Jura;-inkscape-font-specification:'Jura Semi-Bold';text-align:center;letter-spacing:0px;word-spacing:0px;text-anchor:middle;fill:#000000;fill-opacity:1;stroke:#ff0000;stroke-width:0.53149605;stroke-miterlimit:4;stroke-dasharray:none" id="path4355-6" inkscape:connector-curvature="0"/>
      <path d="m 519.7684,662.6005 q -1.93197,0 -2.69716,0.84158 -0.7649,0.82234 -0.7649,2.21859 l 0,3.71058 q 0,0.80319 -0.6886,0.80319 -0.68879,0 -0.68879,-0.80319 l 0,-10.749 q 0,-0.87987 0.6504,-0.87987 0.72699,0 0.72699,0.87987 l 0,3.55751 q 1.18574,-0.95637 3.46206,-0.95637 l 0.55477,0 q 2.56313,0 3.69171,0.70756 1.12869,0.68869 1.12869,2.69687 l 0,4.74343 q 0,0.80319 -0.66946,0.80319 -0.70794,0 -0.70794,-0.80319 l 0,-4.68599 q 0,-1.37701 -0.66936,-1.72136 -0.6504,-0.3634 -2.77364,-0.3634 l -0.55477,0 z" style="font-style:normal;font-variant:normal;font-weight:600;font-stretch:normal;font-size:medium;line-height:69.99999881%;font-family:Jura;-inkscape-font-specification:'Jura Semi-Bold';text-align:center;letter-spacing:0px;word-spacing:0px;text-anchor:middle;fill:#000000;fill-opacity:1;stroke:#ff0000;stroke-width:0.53149605;stroke-miterlimit:4;stroke-dasharray:none" id="path4357-3" inkscape:connector-curvature="0"/>
      <path d="m 528.10839,661.62499 q 0,-0.43999 0.21051,-0.63107 0.21033,-0.19118 0.47809,-0.19118 0.26786,0 0.47828,0.19118 0.21042,0.19108 0.21042,0.63107 l 0,8.03317 q 0,0.8031 -0.70775,0.8031 -0.26767,0 -0.47818,-0.19108 -0.19137,-0.17213 -0.19137,-0.61202 l 0,-8.03317 z m 1.45379,-2.37167 q -0.38255,0.26786 -0.76519,0.26786 -0.38245,0 -0.78424,-0.26786 -0.38254,-0.28681 -0.38254,-0.70765 0,-0.42084 0.36349,-0.68841 0.38245,-0.28701 0.80329,-0.28701 0.38264,0 0.76519,0.28701 0.40169,0.26757 0.40169,0.68841 0,0.42084 -0.40169,0.70765 z" style="font-style:normal;font-variant:normal;font-weight:600;font-stretch:normal;font-size:medium;line-height:69.99999881%;font-family:Jura;-inkscape-font-specification:'Jura Semi-Bold';text-align:center;letter-spacing:0px;word-spacing:0px;text-anchor:middle;fill:#000000;fill-opacity:1;stroke:#ff0000;stroke-width:0.53149605;stroke-miterlimit:4;stroke-dasharray:none" id="path4359-9" inkscape:connector-curvature="0"/>
      <path d="m 535.09023,670.04071 q -1.24318,0 -1.68326,-0.63117 -0.42065,-0.63116 -0.42065,-1.68316 0,-0.87997 0.68841,-0.87997 0.6887,0 0.6887,0.82253 0,0.57382 0.17203,0.78424 0.17232,0.21042 0.6887,0.21042 l 5.12635,0 q 0.93732,0 0.93732,-1.14773 0,-0.55468 -0.26777,-0.91788 -0.24871,-0.38255 -0.66955,-0.38255 l -4.70552,0 q -1.37739,0 -2.0276,-0.70765 -0.63107,-0.70784 -0.63107,-1.85529 0,-1.18593 0.70765,-1.79795 0.70775,-0.63116 2.52503,-0.63116 l 4.30383,0 q 1.24337,0 1.66411,0.65031 0.43999,0.63116 0.43999,1.68307 0,0.86072 -0.6886,0.86072 -0.26796,0 -0.47838,-0.19136 -0.21042,-0.19128 -0.21042,-0.63097 0,-0.57392 -0.17212,-0.78434 -0.17213,-0.21032 -0.6886,-0.21032 l -5.08807,0 q -0.93731,0 -0.93731,1.052 0,0.57363 0.26776,0.87968 0.26776,0.30606 0.66955,0.30606 l 4.72467,0 q 1.41549,0 2.0276,0.76499 0.61202,0.76509 0.61202,1.91264 0,1.22431 -0.7267,1.87462 -0.70785,0.65022 -2.48674,0.65022 l -4.36136,0 z" style="font-style:normal;font-variant:normal;font-weight:600;font-stretch:normal;font-size:medium;line-height:69.99999881%;font-family:Jura;-inkscape-font-specification:'Jura Semi-Bold';text-align:center;letter-spacing:0px;word-spacing:0px;text-anchor:middle;fill:#000000;fill-opacity:1;stroke:#ff0000;stroke-width:0.53149605;stroke-miterlimit:4;stroke-dasharray:none" id="path4361-4" inkscape:connector-curvature="0"/>
      <path d="m 553.43431,661.62499 q 0,-0.43999 0.21052,-0.63107 0.21042,-0.19118 0.47818,-0.19118 0.26786,0 0.47818,0.19118 0.21042,0.19108 0.21042,0.63107 l 0,8.03317 q 0,0.8031 -0.70775,0.8031 -0.26766,0 -0.47808,-0.19108 -0.19147,-0.17213 -0.19147,-0.61202 l 0,-8.03317 z m 1.45379,-2.37167 q -0.38254,0.26786 -0.76509,0.26786 -0.38254,0 -0.78433,-0.26786 -0.38264,-0.28681 -0.38264,-0.70765 0,-0.42084 0.36349,-0.68841 0.38264,-0.28701 0.80348,-0.28701 0.38255,0 0.76509,0.28701 0.40169,0.26757 0.40169,0.68841 0,0.42084 -0.40169,0.70765 z" style="font-style:normal;font-variant:normal;font-weight:600;font-stretch:normal;font-size:medium;line-height:69.99999881%;font-family:Jura;-inkscape-font-specification:'Jura Semi-Bold';text-align:center;letter-spacing:0px;word-spacing:0px;text-anchor:middle;fill:#000000;fill-opacity:1;stroke:#ff0000;stroke-width:0.53149605;stroke-miterlimit:4;stroke-dasharray:none" id="path4363-8" inkscape:connector-curvature="0"/>
      <path d="m 560.41615,670.04071 q -1.24318,0 -1.68326,-0.63117 -0.42074,-0.63116 -0.42074,-1.68316 0,-0.87997 0.68851,-0.87997 0.68869,0 0.68869,0.82253 0,0.57382 0.17223,0.78424 0.17212,0.21042 0.6885,0.21042 l 5.12645,0 q 0.93713,0 0.93713,-1.14773 0,-0.55468 -0.26777,-0.91788 -0.24861,-0.38255 -0.66936,-0.38255 l -4.70561,0 q -1.3772,0 -2.02761,-0.70765 -0.63116,-0.70784 -0.63116,-1.85529 0,-1.18593 0.70765,-1.79795 0.70785,-0.63116 2.52494,-0.63116 l 4.30392,0 q 1.24327,0 1.66411,0.65031 0.44008,0.63116 0.44008,1.68307 0,0.86072 -0.68879,0.86072 -0.26776,0 -0.47828,-0.19136 -0.21032,-0.19128 -0.21032,-0.63097 0,-0.57392 -0.17213,-0.78434 -0.17222,-0.21032 -0.6886,-0.21032 l -5.08806,0 q -0.93732,0 -0.93732,1.052 0,0.57363 0.26777,0.87968 0.26776,0.30606 0.66955,0.30606 l 4.72457,0 q 1.41549,0 2.02751,0.76499 0.6122,0.76509 0.6122,1.91264 0,1.22431 -0.72689,1.87462 -0.70775,0.65022 -2.48674,0.65022 l -4.36117,0 z" style="font-style:normal;font-variant:normal;font-weight:600;font-stretch:normal;font-size:medium;line-height:69.99999881%;font-family:Jura;-inkscape-font-specification:'Jura Semi-Bold';text-align:center;letter-spacing:0px;word-spacing:0px;text-anchor:middle;fill:#000000;fill-opacity:1;stroke:#ff0000;stroke-width:0.53149605;stroke-miterlimit:4;stroke-dasharray:none" id="path4365-1" inkscape:connector-curvature="0"/>
      <path d="m 495.43732,683.11936 q 0,0.765 -0.70794,0.765 -0.66936,0 -0.66936,-0.765 l 0,-10.88292 q 0,-0.78424 0.6886,-0.78424 0.6887,0 0.6887,0.78424 l 0,10.88292 z" style="font-style:normal;font-variant:normal;font-weight:600;font-stretch:normal;font-size:medium;line-height:69.99999881%;font-family:Jura;-inkscape-font-specification:'Jura Semi-Bold';text-align:center;letter-spacing:0px;word-spacing:0px;text-anchor:middle;fill:#000000;fill-opacity:1;stroke:#ff0000;stroke-width:0.53149605;stroke-miterlimit:4;stroke-dasharray:none" id="path4367-2" inkscape:connector-curvature="0"/>
      <path d="m 503.5285,676.31032 q -1.93187,0 -2.69706,0.84158 -0.76509,0.82253 -0.76509,2.21859 l 0,3.71058 q 0,0.80329 -0.6886,0.80329 -0.6886,0 -0.6886,-0.80329 l 0,-7.45935 q 0,-0.82225 0.65031,-0.82225 0.72689,0 0.72689,0.87959 l 0,0.21042 q 1.18603,-0.95627 3.46215,-0.95627 l 0.55486,0 q 2.56314,0 3.69172,0.70756 1.12859,0.68869 1.12859,2.69687 l 0,4.74343 q 0,0.80329 -0.66955,0.80329 -0.70775,0 -0.70775,-0.80329 l 0,-4.68609 q 0,-1.37691 -0.66936,-1.72126 -0.65069,-0.3634 -2.77365,-0.3634 l -0.55486,0 z" style="font-style:normal;font-variant:normal;font-weight:600;font-stretch:normal;font-size:medium;line-height:69.99999881%;font-family:Jura;-inkscape-font-specification:'Jura Semi-Bold';text-align:center;letter-spacing:0px;word-spacing:0px;text-anchor:middle;fill:#000000;fill-opacity:1;stroke:#ff0000;stroke-width:0.53149605;stroke-miterlimit:4;stroke-dasharray:none" id="path4369-9" inkscape:connector-curvature="0"/>
      <path d="m 513.43716,680.28875 q 0,1.35787 0.59296,1.72117 0.59297,0.3634 2.29527,0.3634 0.86073,0 0.86073,0.65031 0,0.72699 -0.86073,0.72699 -2.16153,0 -3.21344,-0.70775 -1.05228,-0.72689 -1.05228,-2.69677 l 0,-4.13142 q -0.59278,-0.0954 -0.59278,-0.66955 0,-0.49714 0.59278,-0.59277 l 0,-1.817 q 0,-0.87978 0.6505,-0.87978 0.72699,0 0.72699,0.87978 l 0,1.79785 2.44835,0 q 0.87996,0 0.87996,0.7268 0,0.65031 -0.87996,0.65031 l -2.44835,0 0,3.97843 z" style="font-style:normal;font-variant:normal;font-weight:600;font-stretch:normal;font-size:medium;line-height:69.99999881%;font-family:Jura;-inkscape-font-specification:'Jura Semi-Bold';text-align:center;letter-spacing:0px;word-spacing:0px;text-anchor:middle;fill:#000000;fill-opacity:1;stroke:#ff0000;stroke-width:0.53149605;stroke-miterlimit:4;stroke-dasharray:none" id="path4371-3" inkscape:connector-curvature="0"/>
      <path sodipodi:nodetypes="scsscsscsscscsscscccccsccscccccccscc" id="path4373-9" d="m 524.80065,674.93312 c -1.72155,0 -2.9593,0.23671 -3.71163,0.70841 -0.75233,0.45913 -1.12906,1.35682 -1.12906,2.69563 l 0,2.0096 c 0,1.33891 0.37673,2.24355 1.12906,2.71535 0.75233,0.45914 1.99008,0.6887 3.71163,0.6887 l 3.07941,0 c 0.82882,0 1.38206,-0.21137 1.66249,-0.63221 0.29329,-0.42074 0.44046,-0.98094 0.44046,-1.68221 0,-0.58658 -0.22975,-0.88083 -0.68879,-0.88083 -0.17851,0 -0.33673,0.0648 -0.47704,0.19194 -0.14021,0.12717 -0.21165,0.33921 -0.21165,0.63231 0,0.38245 -0.0572,0.64154 -0.17223,0.78195 -0.11421,0.14022 -0.34434,0.21156 -0.68879,0.21156 l -2.94386,0 c -1.42836,0 -2.36777,-0.11411 -2.81413,-0.34416 -0.43351,-0.24242 -0.64907,-0.82367 -0.64907,-1.74164 l 0,-1.03314 3.47167,0 0,-1.37444 -3.47167,0 c 0.0371,-0.66317 0.2789,-1.0902 0.72537,-1.28147 0.44627,-0.19128 1.36062,-0.28796 2.73783,-0.28796 l 0.0143,0 0,-1.37739 z m 0.827,0.0143 0,1.3774 c 1.15183,0.0143 1.98351,0.10106 2.40492,0.27671 0.45894,0.17851 0.71384,0.60564 0.7649,1.28147 l -3.16982,0 0,1.37454 4.54721,0 0,-0.91731 c 0,-1.33881 -0.37664,-2.2365 -1.12916,-2.69573 -0.70898,-0.44446 -1.8591,-0.67145 -3.41805,-0.69708 z" style="font-style:normal;font-variant:normal;font-weight:600;font-stretch:normal;font-size:medium;line-height:69.99999881%;font-family:Jura;-inkscape-font-specification:'Jura Semi-Bold';text-align:center;letter-spacing:0px;word-spacing:0px;text-anchor:middle;fill:#000000;fill-opacity:1;stroke:#ff0000;stroke-width:0.53149605;stroke-miterlimit:4;stroke-dasharray:none" inkscape:connector-curvature="0"/>
      <path d="m 537.69175,676.31032 q -1.4155,0 -2.16154,0.78414 -0.72689,0.78433 -0.72689,2.27603 l 0,3.71058 q 0,0.80329 -0.6886,0.80329 -0.68851,0 -0.68851,-0.80329 l 0,-7.45935 q 0,-0.82234 0.65031,-0.82234 0.7268,0 0.7268,0.87968 l 0,0.21042 q 1.14782,-0.95627 2.88843,-0.95627 l 0.87968,0 q 0.86101,0 0.86101,0.68851 0,0.6886 -0.86101,0.6886 l -0.87968,0 z" style="font-style:normal;font-variant:normal;font-weight:600;font-stretch:normal;font-size:medium;line-height:69.99999881%;font-family:Jura;-inkscape-font-specification:'Jura Semi-Bold';text-align:center;letter-spacing:0px;word-spacing:0px;text-anchor:middle;fill:#000000;fill-opacity:1;stroke:#ff0000;stroke-width:0.53149605;stroke-miterlimit:4;stroke-dasharray:none" id="path4375-0" inkscape:connector-curvature="0"/>
      <path d="m 546.91151,676.31032 q -1.93187,0 -2.69706,0.84158 -0.76509,0.82253 -0.76509,2.21859 l 0,3.71058 q 0,0.80329 -0.6886,0.80329 -0.6886,0 -0.6886,-0.80329 l 0,-7.45935 q 0,-0.82234 0.65021,-0.82234 0.72699,0 0.72699,0.87968 l 0,0.21042 q 1.18603,-0.95627 3.46215,-0.95627 l 0.55477,0 q 2.56313,0 3.69181,0.70756 1.12859,0.68869 1.12859,2.69687 l 0,4.74343 q 0,0.80329 -0.66946,0.80329 -0.70774,0 -0.70774,-0.80329 l 0,-4.68609 q 0,-1.37691 -0.66965,-1.72126 -0.65021,-0.3634 -2.77355,-0.3634 l -0.55477,0 z" style="font-style:normal;font-variant:normal;font-weight:600;font-stretch:normal;font-size:medium;line-height:69.99999881%;font-family:Jura;-inkscape-font-specification:'Jura Semi-Bold';text-align:center;letter-spacing:0px;word-spacing:0px;text-anchor:middle;fill:#000000;fill-opacity:1;stroke:#ff0000;stroke-width:0.53149605;stroke-miterlimit:4;stroke-dasharray:none" id="path4377-8" inkscape:connector-curvature="0"/>
      <path id="path4379-8" d="m 560.25784,674.93874 c -1.65421,0.0143 -2.8569,0.24309 -3.59027,0.70279 -0.75242,0.45913 -1.12897,1.35682 -1.12897,2.69563 l 0,2.0096 c 0,1.33891 0.37655,2.24355 1.12897,2.71535 0.75232,0.45914 1.99007,0.6887 3.71162,0.6887 l 3.07932,0 c 0.82901,0 1.38187,-0.21137 1.6625,-0.63221 0.29338,-0.42074 0.44036,-0.98094 0.44036,-1.68221 0,-0.58658 -0.22966,-0.88083 -0.6886,-0.88083 -0.1787,0 -0.33692,0.0648 -0.47704,0.19194 -0.14012,0.12717 -0.21185,0.33921 -0.21185,0.63231 0,0.38245 -0.0572,0.64154 -0.17203,0.78195 -0.11554,0.14022 -0.34454,0.21156 -0.68879,0.21156 l -2.94387,0 c -1.42835,0 -2.36785,-0.11411 -2.81413,-0.34416 -0.4335,-0.24242 -0.64916,-0.82367 -0.64916,-1.74164 l 0,-1.03314 3.34194,0 0,-1.37444 -3.34194,0 c 0.0391,-0.66317 0.2791,-1.0902 0.72556,-1.28147 0.43046,-0.18451 1.31948,-0.27586 2.61638,-0.28234 l 0,-1.37739 z m 0.81853,0 0,1.37739 c 1.23317,0.0143 2.09533,0.0997 2.53455,0.28234 0.45904,0.1785 0.71394,0.60553 0.765,1.28147 l -3.29955,0 0,1.37444 4.67685,0 0,-0.91722 c 0,-1.33881 -0.37655,-2.2365 -1.12888,-2.69563 -0.72965,-0.45742 -1.91882,-0.68898 -3.54797,-0.70279 z" style="font-style:normal;font-variant:normal;font-weight:600;font-stretch:normal;font-size:medium;line-height:69.99999881%;font-family:Jura;-inkscape-font-specification:'Jura Semi-Bold';text-align:center;letter-spacing:0px;word-spacing:0px;text-anchor:middle;fill:#000000;fill-opacity:1;stroke:#ff0000;stroke-width:0.53149605;stroke-miterlimit:4;stroke-dasharray:none" inkscape:connector-curvature="0"/>
      <path d="m 570.28632,680.28875 q 0,1.35787 0.59297,1.72117 0.59306,0.3634 2.29546,0.3634 0.86082,0 0.86082,0.65031 0,0.72699 -0.86082,0.72699 -2.16134,0 -3.21353,-0.70775 -1.052,-0.72689 -1.052,-2.69677 l 0,-4.13142 q -0.59306,-0.0954 -0.59306,-0.66955 0,-0.49714 0.59306,-0.59277 l 0,-1.817 q 0,-0.87978 0.6503,-0.87978 0.7268,0 0.7268,0.87978 l 0,1.79785 2.44854,0 q 0.87988,0 0.87988,0.7268 0,0.65031 -0.87988,0.65031 l -2.44854,0 0,3.97843 z" style="font-style:normal;font-variant:normal;font-weight:600;font-stretch:normal;font-size:medium;line-height:69.99999881%;font-family:Jura;-inkscape-font-specification:'Jura Semi-Bold';text-align:center;letter-spacing:0px;word-spacing:0px;text-anchor:middle;fill:#000000;fill-opacity:1;stroke:#ff0000;stroke-width:0.53149605;stroke-miterlimit:4;stroke-dasharray:none" id="path4381-5" inkscape:connector-curvature="0"/>
      <text inkscape:transform-center-y="44.141547" inkscape:transform-center-x="-293.32794" transform="matrix(0,-1.0000496,0.9999504,0,0,0)" sodipodi:linespacing="100%" id="text17318-1-2-2-0" y="329.03366" x="-612.73114" style="font-style:normal;font-variant:normal;font-weight:normal;font-stretch:normal;font-size:28.36650467px;line-height:100%;font-family:'HVD Comic Serif Pro';-inkscape-font-specification:'HVD Comic Serif Pro';letter-spacing:0px;word-spacing:0px;fill:#000000;fill-opacity:1;stroke:#ff0000;stroke-width:0.53149605;stroke-miterlimit:4;stroke-dasharray:none" xml:space="preserve"><tspan id="tspan10974-3-1-9" style="font-style:normal;font-variant:normal;font-weight:600;font-stretch:normal;line-height:100%;font-family:Jura;-inkscape-font-specification:'Jura Semi-Bold';text-align:center;text-anchor:middle;fill:#000000;fill-opacity:1;stroke:#ff0000;stroke-width:0.53149605;stroke-miterlimit:4;stroke-dasharray:none" y="329.03366" x="-612.73114" sodipodi:role="line">la brique</tspan><tspan id="tspan4612-6" style="font-style:normal;font-variant:normal;font-weight:600;font-stretch:normal;line-height:100%;font-family:Jura;-inkscape-font-specification:'Jura Semi-Bold';text-align:center;text-anchor:middle;fill:#000000;fill-opacity:1;stroke:#ff0000;stroke-width:0.53149605;stroke-miterlimit:4;stroke-dasharray:none" y="357.40018" x="-612.73114" sodipodi:role="line">inter.net</tspan><tspan id="tspan4610-3" style="font-style:normal;font-variant:normal;font-weight:600;font-stretch:normal;line-height:100%;font-family:Jura;-inkscape-font-specification:'Jura Semi-Bold';text-align:center;text-anchor:middle;fill:#000000;fill-opacity:1;stroke:#ff0000;stroke-width:0.53149605;stroke-miterlimit:4;stroke-dasharray:none" y="385.76666" x="-612.73114" sodipodi:role="line"/></text>
      <text sodipodi:linespacing="125%" id="text11016-9-3-8-2-8" y="785.6048" x="-676.08423" style="font-style:normal;font-variant:normal;font-weight:normal;font-stretch:normal;font-size:9.15457153px;line-height:125%;font-family:'HVD Comic Serif Pro';-inkscape-font-specification:'HVD Comic Serif Pro';letter-spacing:0px;word-spacing:0px;fill:#000000;fill-opacity:1;stroke:#ff0000;stroke-width:0.53149605;stroke-miterlimit:4;stroke-dasharray:none" xml:space="preserve" transform="matrix(0.52322373,-1.0293222,0.99862615,-0.05333868,0,0)"><tspan style="font-style:normal;font-variant:normal;font-weight:bold;font-stretch:normal;font-family:Sans;-inkscape-font-specification:'Sans Bold';fill:#000000;fill-opacity:1;stroke:#ff0000;stroke-width:0.53149605;stroke-miterlimit:4;stroke-dasharray:none" y="785.6048" x="-676.08423" id="tspan11018-4-8-8-6-5" sodipodi:role="line">labrique</tspan></text>
      <text transform="matrix(0.8345064,-0.55104228,1.006968,0.53339082,0,0)" sodipodi:linespacing="125%" id="text9508-6-1-4-1-6" y="782.7384" x="-366.72012" style="font-style:normal;font-variant:normal;font-weight:normal;font-stretch:normal;font-size:8.8216629px;line-height:125%;font-family:'HVD Comic Serif Pro';-inkscape-font-specification:'HVD Comic Serif Pro';letter-spacing:0px;word-spacing:0px;fill:#000000;fill-opacity:1;stroke:#ff0000;stroke-width:0.53149605;stroke-miterlimit:4;stroke-dasharray:none" xml:space="preserve"><tspan style="font-style:normal;font-variant:normal;font-weight:bold;font-stretch:normal;font-family:Sans;-inkscape-font-specification:'Sans Bold';fill:#000000;fill-opacity:1;stroke:#ff0000;stroke-width:0.53149605;stroke-miterlimit:4;stroke-dasharray:none" y="782.7384" x="-366.72012" id="tspan9510-9-8-3-0-1" sodipodi:role="line">inter.net</tspan></text>
    </g>
    <g id="g5298">
      <rect transform="matrix(0,1,-1,0,0,0)" y="-270.01019" x="346.30075" height="21.107523" width="10.477601" id="rect4968-3" style="color:#000000;clip-rule:nonzero;display:inline;overflow:visible;visibility:visible;opacity:1;isolation:auto;mix-blend-mode:normal;color-interpolation:sRGB;color-interpolation-filters:linearRGB;solid-color:#000000;solid-opacity:1;fill:none;fill-opacity:1;fill-rule:evenodd;stroke:#0000ff;stroke-width:0.53149605;stroke-linecap:butt;stroke-linejoin:round;stroke-miterlimit:4;stroke-dasharray:none;stroke-dashoffset:0;stroke-opacity:1;color-rendering:auto;image-rendering:auto;shape-rendering:auto;text-rendering:auto;enable-background:accumulate"/>
      <rect transform="matrix(0,1,-1,0,0,0)" y="-242.01019" x="346.30075" height="21.107523" width="10.477601" id="rect4968-19" style="color:#000000;clip-rule:nonzero;display:inline;overflow:visible;visibility:visible;opacity:1;isolation:auto;mix-blend-mode:normal;color-interpolation:sRGB;color-interpolation-filters:linearRGB;solid-color:#000000;solid-opacity:1;fill:none;fill-opacity:1;fill-rule:evenodd;stroke:#0000ff;stroke-width:0.53149605;stroke-linecap:butt;stroke-linejoin:round;stroke-miterlimit:4;stroke-dasharray:none;stroke-dashoffset:0;stroke-opacity:1;color-rendering:auto;image-rendering:auto;shape-rendering:auto;text-rendering:auto;enable-background:accumulate"/>
      <path id="path4752-75" d="m 198.42671,266.23684 0,28.3457 0,155.90621 0,28.3457 237.4023,0 0,-212.59761 -237.4023,0 z" style="color:#000000;display:inline;overflow:visible;visibility:visible;opacity:0.6;fill:none;fill-opacity:1;fill-rule:nonzero;stroke:#00ff00;stroke-width:0.53149605;stroke-linecap:butt;stroke-linejoin:miter;stroke-miterlimit:4;stroke-dasharray:none;stroke-dashoffset:0;stroke-opacity:1;marker:none;enable-background:accumulate" inkscape:connector-curvature="0"/>
      <path id="path4746-2" d="m 216.14551,294.58254 205.5097,0 a 3.5433071,3.5433071 0 0 1 3.543,3.543 l 0,148.81831 a 3.5433071,3.5433071 0 0 1 -3.543,3.5449 l -205.5097,0 a 7.0866141,7.0866141 0 0 1 -7.0879,-7.0879 l 0,-141.73241 a 7.0866141,7.0866141 0 0 1 7.0879,-7.0859 z" style="color:#000000;display:inline;overflow:visible;visibility:visible;opacity:0.6;fill:none;fill-opacity:1;fill-rule:nonzero;stroke:#00ffff;stroke-width:0.53149605;stroke-linecap:butt;stroke-linejoin:miter;stroke-miterlimit:4;stroke-dasharray:none;stroke-dashoffset:0;stroke-opacity:1;marker:none;enable-background:accumulate" inkscape:connector-curvature="0"/>
      <rect y="275.09467" x="311.81277" height="10.629921" width="10.629921" id="rect4889-7" style="color:#000000;clip-rule:nonzero;display:inline;overflow:visible;visibility:visible;opacity:1;isolation:auto;mix-blend-mode:normal;color-interpolation:sRGB;color-interpolation-filters:linearRGB;solid-color:#000000;solid-opacity:1;fill:none;fill-opacity:1;fill-rule:evenodd;stroke:#0000ff;stroke-width:0.53149605;stroke-linecap:butt;stroke-linejoin:round;stroke-miterlimit:4;stroke-dasharray:none;stroke-dashoffset:0;stroke-opacity:1;color-rendering:auto;image-rendering:auto;shape-rendering:auto;text-rendering:auto;enable-background:accumulate"/>
      <rect y="459.34662" x="311.81277" height="10.629921" width="10.629921" id="rect4889-3-6" style="color:#000000;clip-rule:nonzero;display:inline;overflow:visible;visibility:visible;opacity:1;isolation:auto;mix-blend-mode:normal;color-interpolation:sRGB;color-interpolation-filters:linearRGB;solid-color:#000000;solid-opacity:1;fill:none;fill-opacity:1;fill-rule:evenodd;stroke:#0000ff;stroke-width:0.53149605;stroke-linecap:butt;stroke-linejoin:round;stroke-miterlimit:4;stroke-dasharray:none;stroke-dashoffset:0;stroke-opacity:1;color-rendering:auto;image-rendering:auto;shape-rendering:auto;text-rendering:auto;enable-background:accumulate"/>
      <path inkscape:connector-curvature="0" style="color:#000000;display:inline;overflow:visible;visibility:visible;opacity:0.6;fill:none;fill-opacity:1;fill-rule:nonzero;stroke:#0000ff;stroke-width:0.53149605;stroke-linecap:butt;stroke-linejoin:miter;stroke-miterlimit:4;stroke-dasharray:none;stroke-dashoffset:0;stroke-opacity:1;marker:none;enable-background:accumulate" d="m 211.00681,277.59618 a 5.68364,5.68364 0 0 1 5.6836,5.6836 5.68364,5.68364 0 0 1 -5.6836,5.6836 5.68364,5.68364 0 0 1 -5.6836,-5.6836 5.68364,5.68364 0 0 1 5.6836,-5.6836 z" id="path4750-9"/>
      <path inkscape:connector-curvature="0" style="color:#000000;display:inline;overflow:visible;visibility:visible;opacity:0.6;fill:none;fill-opacity:1;fill-rule:nonzero;stroke:#0000ff;stroke-width:0.53149605;stroke-linecap:butt;stroke-linejoin:miter;stroke-miterlimit:4;stroke-dasharray:none;stroke-dashoffset:0;stroke-opacity:1;marker:none;enable-background:accumulate" d="m 359.46971,277.59618 a 5.68364,5.68364 0 0 1 5.6836,5.6836 5.68364,5.68364 0 0 1 -5.6836,5.6836 5.68364,5.68364 0 0 1 -5.6836,-5.6836 5.68364,5.68364 0 0 1 5.6836,-5.6836 z" id="path4748-2"/>
      <path inkscape:connector-curvature="0" style="color:#000000;display:inline;overflow:visible;visibility:visible;opacity:0.6;fill:none;fill-opacity:1;fill-rule:nonzero;stroke:#0000ff;stroke-width:0.53149605;stroke-linecap:butt;stroke-linejoin:miter;stroke-miterlimit:4;stroke-dasharray:none;stroke-dashoffset:0;stroke-opacity:1;marker:none;enable-background:accumulate" d="m 211.00681,456.1079 a 5.68364,5.68364 0 0 1 5.6836,5.6836 5.68364,5.68364 0 0 1 -5.6836,5.6836 5.68364,5.68364 0 0 1 -5.6836,-5.6836 5.68364,5.68364 0 0 1 5.6836,-5.6836 z" id="path4744-8"/>
      <path inkscape:connector-curvature="0" style="color:#000000;display:inline;overflow:visible;visibility:visible;opacity:0.6;fill:none;fill-opacity:1;fill-rule:nonzero;stroke:#0000ff;stroke-width:0.53149605;stroke-linecap:butt;stroke-linejoin:miter;stroke-miterlimit:4;stroke-dasharray:none;stroke-dashoffset:0;stroke-opacity:1;marker:none;enable-background:accumulate" d="m 359.46971,456.1079 a 5.68364,5.68364 0 0 1 5.6836,5.6836 5.68364,5.68364 0 0 1 -5.6836,5.6836 5.68364,5.68364 0 0 1 -5.6836,-5.6836 5.68364,5.68364 0 0 1 5.6836,-5.6836 z" id="rect4151-3-9-3-9"/>
      <path id="path9019" d="m 236.12372,304.84383 a 17.716536,17.716536 0 0 0 -17.71472,17.7168 17.716536,17.716536 0 0 0 17.71472,17.71679 17.716536,17.716536 0 0 0 17.7168,-17.71679 17.716536,17.716536 0 0 0 -17.7168,-17.7168 z" style="color:#000000;clip-rule:nonzero;display:inline;overflow:visible;visibility:visible;opacity:1;isolation:auto;mix-blend-mode:normal;color-interpolation:sRGB;color-interpolation-filters:linearRGB;solid-color:#000000;solid-opacity:1;fill:none;fill-opacity:1;fill-rule:evenodd;stroke:#336699;stroke-width:0.53149605;stroke-linecap:butt;stroke-linejoin:round;stroke-miterlimit:4;stroke-dasharray:none;stroke-dashoffset:0;stroke-opacity:1;color-rendering:auto;image-rendering:auto;shape-rendering:auto;text-rendering:auto;enable-background:accumulate" inkscape:connector-curvature="0"/>
      <path id="path8982-1" d="m 236.12372,312.63875 a 9.9212599,9.9212599 0 0 1 9.9219,9.92188 9.9212599,9.9212599 0 0 1 -9.9219,9.92187 9.9212599,9.9212599 0 0 1 -9.9199,-9.92187 9.9212599,9.9212599 0 0 1 9.9199,-9.92188 z" style="color:#000000;clip-rule:nonzero;display:inline;overflow:visible;visibility:visible;opacity:1;isolation:auto;mix-blend-mode:normal;color-interpolation:sRGB;color-interpolation-filters:linearRGB;solid-color:#000000;solid-opacity:1;fill:none;fill-opacity:1;fill-rule:evenodd;stroke:#0000ff;stroke-width:0.53149605;stroke-linecap:butt;stroke-linejoin:round;stroke-miterlimit:4;stroke-dasharray:none;stroke-dashoffset:0;stroke-opacity:1;color-rendering:auto;image-rendering:auto;shape-rendering:auto;text-rendering:auto;enable-background:accumulate" inkscape:connector-curvature="0"/>
      <path id="path9019-8" d="m 277.36262,304.8731 a 17.716536,17.716536 0 0 0 -17.71472,17.7168 17.716536,17.716536 0 0 0 17.71472,17.71679 17.716536,17.716536 0 0 0 17.7168,-17.71679 17.716536,17.716536 0 0 0 -17.7168,-17.7168 z" style="color:#000000;clip-rule:nonzero;display:inline;overflow:visible;visibility:visible;opacity:1;isolation:auto;mix-blend-mode:normal;color-interpolation:sRGB;color-interpolation-filters:linearRGB;solid-color:#000000;solid-opacity:1;fill:none;fill-opacity:1;fill-rule:evenodd;stroke:#336699;stroke-width:0.53149605;stroke-linecap:butt;stroke-linejoin:round;stroke-miterlimit:4;stroke-dasharray:none;stroke-dashoffset:0;stroke-opacity:1;color-rendering:auto;image-rendering:auto;shape-rendering:auto;text-rendering:auto;enable-background:accumulate" inkscape:connector-curvature="0"/>
      <path id="path8982-1-4" d="m 277.36262,312.66802 a 9.9212599,9.9212599 0 0 1 9.9219,9.92188 9.9212599,9.9212599 0 0 1 -9.9219,9.92187 9.9212599,9.9212599 0 0 1 -9.9199,-9.92187 9.9212599,9.9212599 0 0 1 9.9199,-9.92188 z" style="color:#000000;clip-rule:nonzero;display:inline;overflow:visible;visibility:visible;opacity:1;isolation:auto;mix-blend-mode:normal;color-interpolation:sRGB;color-interpolation-filters:linearRGB;solid-color:#000000;solid-opacity:1;fill:none;fill-opacity:1;fill-rule:evenodd;stroke:#0000ff;stroke-width:0.53149605;stroke-linecap:butt;stroke-linejoin:round;stroke-miterlimit:4;stroke-dasharray:none;stroke-dashoffset:0;stroke-opacity:1;color-rendering:auto;image-rendering:auto;shape-rendering:auto;text-rendering:auto;enable-background:accumulate" inkscape:connector-curvature="0"/>
      <path id="path9019-1" d="m 318.40782,305.15813 a 17.716536,17.716536 0 0 0 -17.71472,17.7168 17.716536,17.716536 0 0 0 17.71472,17.71679 17.716536,17.716536 0 0 0 17.7168,-17.71679 17.716536,17.716536 0 0 0 -17.7168,-17.7168 z" style="color:#000000;clip-rule:nonzero;display:inline;overflow:visible;visibility:visible;opacity:1;isolation:auto;mix-blend-mode:normal;color-interpolation:sRGB;color-interpolation-filters:linearRGB;solid-color:#000000;solid-opacity:1;fill:none;fill-opacity:1;fill-rule:evenodd;stroke:#336699;stroke-width:0.53149605;stroke-linecap:butt;stroke-linejoin:round;stroke-miterlimit:4;stroke-dasharray:none;stroke-dashoffset:0;stroke-opacity:1;color-rendering:auto;image-rendering:auto;shape-rendering:auto;text-rendering:auto;enable-background:accumulate" inkscape:connector-curvature="0"/>
      <path id="path8982-1-0" d="m 318.40782,312.95305 a 9.9212599,9.9212599 0 0 1 9.9219,9.92188 9.9212599,9.9212599 0 0 1 -9.9219,9.92187 9.9212599,9.9212599 0 0 1 -9.9199,-9.92187 9.9212599,9.9212599 0 0 1 9.9199,-9.92188 z" style="color:#000000;clip-rule:nonzero;display:inline;overflow:visible;visibility:visible;opacity:1;isolation:auto;mix-blend-mode:normal;color-interpolation:sRGB;color-interpolation-filters:linearRGB;solid-color:#000000;solid-opacity:1;fill:none;fill-opacity:1;fill-rule:evenodd;stroke:#0000ff;stroke-width:0.53149605;stroke-linecap:butt;stroke-linejoin:round;stroke-miterlimit:4;stroke-dasharray:none;stroke-dashoffset:0;stroke-opacity:1;color-rendering:auto;image-rendering:auto;shape-rendering:auto;text-rendering:auto;enable-background:accumulate" inkscape:connector-curvature="0"/>
      <path id="path9019-0" d="m 359.45302,304.01799 a 17.716536,17.716536 0 0 0 -17.71472,17.7168 17.716536,17.716536 0 0 0 17.71472,17.71679 17.716536,17.716536 0 0 0 17.7168,-17.71679 17.716536,17.716536 0 0 0 -17.7168,-17.7168 z" style="color:#000000;clip-rule:nonzero;display:inline;overflow:visible;visibility:visible;opacity:1;isolation:auto;mix-blend-mode:normal;color-interpolation:sRGB;color-interpolation-filters:linearRGB;solid-color:#000000;solid-opacity:1;fill:none;fill-opacity:1;fill-rule:evenodd;stroke:#336699;stroke-width:0.53149605;stroke-linecap:butt;stroke-linejoin:round;stroke-miterlimit:4;stroke-dasharray:none;stroke-dashoffset:0;stroke-opacity:1;color-rendering:auto;image-rendering:auto;shape-rendering:auto;text-rendering:auto;enable-background:accumulate" inkscape:connector-curvature="0"/>
      <path id="path8982-1-44" d="m 359.45302,311.81291 a 9.9212599,9.9212599 0 0 1 9.9219,9.92188 9.9212599,9.9212599 0 0 1 -9.9219,9.92187 9.9212599,9.9212599 0 0 1 -9.9199,-9.92187 9.9212599,9.9212599 0 0 1 9.9199,-9.92188 z" style="color:#000000;clip-rule:nonzero;display:inline;overflow:visible;visibility:visible;opacity:1;isolation:auto;mix-blend-mode:normal;color-interpolation:sRGB;color-interpolation-filters:linearRGB;solid-color:#000000;solid-opacity:1;fill:none;fill-opacity:1;fill-rule:evenodd;stroke:#0000ff;stroke-width:0.53149605;stroke-linecap:butt;stroke-linejoin:round;stroke-miterlimit:4;stroke-dasharray:none;stroke-dashoffset:0;stroke-opacity:1;color-rendering:auto;image-rendering:auto;shape-rendering:auto;text-rendering:auto;enable-background:accumulate" inkscape:connector-curvature="0"/>
    </g>
    <g id="g5161">
      <path inkscape:connector-curvature="0" id="path4593-5-0" d="m 708.39365,547.24871 -10.62891,0 0,-36.1426 -21.25195,0 0,-10.6308 -3.55078,0 -12.40234,0 -3.54297,0 -12.40235,0 -3.55078,0 0,10.6289 -21.25195,0 0,36.1406 -10.62891,0 0,46.7715 10.62891,0 0,46.7715 -10.62891,0 0,46.7715 10.62891,0 0,36.1426 21.25195,0 0,10.6308 3.55078,0 12.40235,0 3.54297,0 12.40234,0 3.55078,0 0,-10.6289 21.25195,0 0,-36.1406 10.62891,0 0,-46.7715 -10.62891,0 0,-46.7715 10.62891,0 0,-46.7715 z" style="color:#000000;display:inline;overflow:visible;visibility:visible;opacity:1;fill:none;fill-opacity:1;fill-rule:nonzero;stroke:#336699;stroke-width:0.53149605;stroke-linecap:butt;stroke-linejoin:miter;stroke-miterlimit:4;stroke-dasharray:none;stroke-dashoffset:0;stroke-opacity:1;marker:none;enable-background:accumulate"/>
      <path inkscape:connector-curvature="0" id="path4904" d="m 632.97728,719.19011 0,-55.1776 -9.1074,0 0,55.1776 9.1074,0 z" style="color:#000000;display:inline;overflow:visible;visibility:visible;opacity:1;fill:none;fill-opacity:1;fill-rule:nonzero;stroke:#0000ff;stroke-width:0.53149605;stroke-linecap:butt;stroke-linejoin:miter;stroke-miterlimit:4;stroke-dasharray:none;stroke-dashoffset:0;stroke-opacity:1;marker:none;enable-background:accumulate"/>
      <path inkscape:connector-curvature="0" id="path4902" d="m 654.31708,711.78001 0,-32.8575 -16.9648,0 0,32.8575 16.9648,0 z" style="color:#000000;display:inline;overflow:visible;visibility:visible;opacity:1;fill:none;fill-opacity:1;fill-rule:nonzero;stroke:#0000ff;stroke-width:0.53149605;stroke-linecap:butt;stroke-linejoin:miter;stroke-miterlimit:4;stroke-dasharray:none;stroke-dashoffset:0;stroke-opacity:1;marker:none;enable-background:accumulate"/>
      <path inkscape:connector-curvature="0" id="path4900" d="m 661.28198,663.47531 0,-61.4277 -6.9649,0 0,-59.125 1.4688,0 0,-27.3047 -1.4688,0 -17.6797,0 0,86.4297 0,61.4277 24.6446,0 z" style="color:#000000;display:inline;overflow:visible;visibility:visible;opacity:1;fill:none;fill-opacity:1;fill-rule:nonzero;stroke:#0000ff;stroke-width:0.53149605;stroke-linecap:butt;stroke-linejoin:miter;stroke-miterlimit:4;stroke-dasharray:none;stroke-dashoffset:0;stroke-opacity:1;marker:none;enable-background:accumulate"/>
      <path inkscape:connector-curvature="0" id="path4898" d="m 627.83668,594.63931 a 5.7613893,5.7613893 0 0 0 5.7617,-5.7617 5.7613893,5.7613893 0 0 0 -5.7617,-5.7617 5.7613893,5.7613893 0 0 0 -5.7618,5.7617 5.7613893,5.7613893 0 0 0 5.7618,5.7617 z" style="color:#000000;display:inline;overflow:visible;visibility:visible;opacity:1;fill:none;fill-opacity:1;fill-rule:nonzero;stroke:#0000ff;stroke-width:0.53149605;stroke-linecap:butt;stroke-linejoin:miter;stroke-miterlimit:4;stroke-dasharray:none;stroke-dashoffset:0;stroke-opacity:1;marker:none;enable-background:accumulate"/>
      <path inkscape:connector-curvature="0" id="path4896" d="m 627.83668,564.77221 a 5.7613893,5.7613893 0 0 0 5.7617,-5.7597 5.7613893,5.7613893 0 0 0 -5.7617,-5.7618 5.7613893,5.7613893 0 0 0 -5.7618,5.7618 5.7613893,5.7613893 0 0 0 5.7618,5.7597 z" style="color:#000000;display:inline;overflow:visible;visibility:visible;opacity:1;fill:none;fill-opacity:1;fill-rule:nonzero;stroke:#0000ff;stroke-width:0.53149605;stroke-linecap:butt;stroke-linejoin:miter;stroke-miterlimit:4;stroke-dasharray:none;stroke-dashoffset:0;stroke-opacity:1;marker:none;enable-background:accumulate"/>
      <path inkscape:connector-curvature="0" id="path5113" d="m 627.83668,536.82891 a 5.7613893,5.7613893 0 0 0 5.7617,-5.7617 5.7613893,5.7613893 0 0 0 -5.7617,-5.7618 5.7613893,5.7613893 0 0 0 -5.7618,5.7618 5.7613893,5.7613893 0 0 0 5.7618,5.7617 z" style="color:#000000;display:inline;overflow:visible;visibility:visible;opacity:1;fill:none;fill-opacity:1;fill-rule:nonzero;stroke:#0000ff;stroke-width:0.53149605;stroke-linecap:butt;stroke-linejoin:miter;stroke-miterlimit:4;stroke-dasharray:none;stroke-dashoffset:0;stroke-opacity:1;marker:none;enable-background:accumulate"/>
      <rect transform="matrix(0,1,-1,0,0,0)" y="-630.59326" x="522.55267" height="5.5132341" width="17.028917" id="rect4892" style="color:#000000;display:inline;overflow:visible;visibility:visible;opacity:1;fill:none;fill-opacity:1;fill-rule:nonzero;stroke:#0000ff;stroke-width:0.53149605;stroke-linecap:butt;stroke-linejoin:miter;stroke-miterlimit:4;stroke-dasharray:none;stroke-dashoffset:0;stroke-opacity:1;marker:none;enable-background:accumulate"/>
      <rect transform="matrix(0,1,-1,0,0,0)" y="-630.59326" x="550.49701" height="5.5132341" width="17.028917" id="rect4892-5" style="color:#000000;display:inline;overflow:visible;visibility:visible;opacity:1;fill:none;fill-opacity:1;fill-rule:nonzero;stroke:#0000ff;stroke-width:0.53149605;stroke-linecap:butt;stroke-linejoin:miter;stroke-miterlimit:4;stroke-dasharray:none;stroke-dashoffset:0;stroke-opacity:1;marker:none;enable-background:accumulate"/>
      <rect transform="matrix(0,1,-1,0,0,0)" y="-630.59326" x="580.3631" height="5.5132341" width="17.028917" id="rect4892-9" style="color:#000000;display:inline;overflow:visible;visibility:visible;opacity:1;fill:none;fill-opacity:1;fill-rule:nonzero;stroke:#0000ff;stroke-width:0.53149605;stroke-linecap:butt;stroke-linejoin:miter;stroke-miterlimit:4;stroke-dasharray:none;stroke-dashoffset:0;stroke-opacity:1;marker:none;enable-background:accumulate"/>
    </g>
    <rect style="color:#000000;clip-rule:nonzero;display:inline;overflow:visible;visibility:visible;opacity:1;isolation:auto;mix-blend-mode:normal;color-interpolation:sRGB;color-interpolation-filters:linearRGB;solid-color:#000000;solid-opacity:1;fill:#000000;fill-opacity:1;fill-rule:nonzero;stroke:#000000;stroke-width:0.53149605;stroke-linecap:square;stroke-linejoin:round;stroke-miterlimit:4;stroke-dasharray:none;stroke-dashoffset:0;stroke-opacity:1;color-rendering:auto;image-rendering:auto;shape-rendering:auto;text-rendering:auto;enable-background:accumulate" id="rect5116" width="67.14286" height="11.428572" x="-47.444931" y="799.33044"/>
    <text xml:space="preserve" style="font-style:normal;font-weight:normal;font-size:40px;line-height:125%;font-family:sans-serif;letter-spacing:0px;word-spacing:0px;fill:#000000;fill-opacity:1;stroke:none;stroke-width:1px;stroke-linecap:butt;stroke-linejoin:miter;stroke-opacity:1" x="29.697926" y="812.18762" id="text5118" sodipodi:linespacing="125%"><tspan sodipodi:role="line" id="tspan5120" x="29.697926" y="812.18762" style="font-size:20px">Gravure (puissance : 100; vitesse : 50)</tspan></text>
    <text xml:space="preserve" style="font-style:normal;font-weight:normal;font-size:40px;line-height:125%;font-family:sans-serif;letter-spacing:0px;word-spacing:0px;fill:#000000;fill-opacity:1;stroke:none;stroke-width:1px;stroke-linecap:butt;stroke-linejoin:miter;stroke-opacity:1" x="-59.908649" y="787.3913" id="text5118-3" sodipodi:linespacing="125%"><tspan sodipodi:role="line" id="tspan5120-6" x="-59.908649" y="787.3913" style="font-size:20px">Rglages approximatifs pour dcoupeuse laser Trotec (couleurs dans l'ordre de leur utilisation par la machine)</tspan></text>
    <rect style="color:#000000;clip-rule:nonzero;display:inline;overflow:visible;visibility:visible;opacity:1;isolation:auto;mix-blend-mode:normal;color-interpolation:sRGB;color-interpolation-filters:linearRGB;solid-color:#000000;solid-opacity:1;fill:#ff0000;fill-opacity:1;fill-rule:nonzero;stroke:#ff0000;stroke-width:0.53149605;stroke-linecap:square;stroke-linejoin:round;stroke-miterlimit:4;stroke-dasharray:none;stroke-dashoffset:0;stroke-opacity:1;color-rendering:auto;image-rendering:auto;shape-rendering:auto;text-rendering:auto;enable-background:accumulate" id="rect5116-7" width="67.14286" height="11.428572" x="-47.444931" y="819.33044"/>
    <text xml:space="preserve" style="font-style:normal;font-weight:normal;font-size:40px;line-height:125%;font-family:sans-serif;letter-spacing:0px;word-spacing:0px;fill:#000000;fill-opacity:1;stroke:none;stroke-width:1px;stroke-linecap:butt;stroke-linejoin:miter;stroke-opacity:1" x="29.697929" y="832.18762" id="text5118-5" sodipodi:linespacing="125%"><tspan sodipodi:role="line" id="tspan5120-3" x="29.697929" y="832.18762" style="font-size:20px">Marquage = dcoupe non traversante (puissance : 12; vitesse : 2)</tspan></text>
    <rect style="color:#000000;clip-rule:nonzero;display:inline;overflow:visible;visibility:visible;opacity:1;isolation:auto;mix-blend-mode:normal;color-interpolation:sRGB;color-interpolation-filters:linearRGB;solid-color:#000000;solid-opacity:1;fill:#0000ff;fill-opacity:1;fill-rule:nonzero;stroke:#0000ff;stroke-width:0.53149605;stroke-linecap:square;stroke-linejoin:round;stroke-miterlimit:4;stroke-dasharray:none;stroke-dashoffset:0;stroke-opacity:1;color-rendering:auto;image-rendering:auto;shape-rendering:auto;text-rendering:auto;enable-background:accumulate" id="rect5116-5" width="67.14286" height="11.428572" x="-47.444931" y="839.33044"/>
    <text xml:space="preserve" style="font-style:normal;font-weight:normal;font-size:40px;line-height:125%;font-family:sans-serif;letter-spacing:0px;word-spacing:0px;fill:#000000;fill-opacity:1;stroke:none;stroke-width:1px;stroke-linecap:butt;stroke-linejoin:miter;stroke-opacity:1" x="29.697929" y="852.18762" id="text5118-6" sodipodi:linespacing="125%"><tspan sodipodi:role="line" id="tspan5120-2" x="29.697929" y="852.18762" style="font-size:20px">Dcoupe (puissance : 50; vitesse : 0.5)</tspan></text>
    <rect style="color:#000000;clip-rule:nonzero;display:inline;overflow:visible;visibility:visible;opacity:1;isolation:auto;mix-blend-mode:normal;color-interpolation:sRGB;color-interpolation-filters:linearRGB;solid-color:#000000;solid-opacity:1;fill:#336699;fill-opacity:1;fill-rule:nonzero;stroke:#336699;stroke-width:0.53149605;stroke-linecap:square;stroke-linejoin:round;stroke-miterlimit:4;stroke-dasharray:none;stroke-dashoffset:0;stroke-opacity:1;color-rendering:auto;image-rendering:auto;shape-rendering:auto;text-rendering:auto;enable-background:accumulate" id="rect5116-9" width="67.14286" height="11.428572" x="-47.444931" y="859.33044"/>
    <text xml:space="preserve" style="font-style:normal;font-weight:normal;font-size:40px;line-height:125%;font-family:sans-serif;letter-spacing:0px;word-spacing:0px;fill:#000000;fill-opacity:1;stroke:none;stroke-width:1px;stroke-linecap:butt;stroke-linejoin:miter;stroke-opacity:1" x="29.697929" y="872.18762" id="text5118-1" sodipodi:linespacing="125%"><tspan sodipodi:role="line" id="tspan5120-27" x="29.697929" y="872.18762" style="font-size:20px">Dcoupe (puissance : 50; vitesse : 0.5)</tspan></text>
    <rect style="color:#000000;clip-rule:nonzero;display:inline;overflow:visible;visibility:visible;opacity:1;isolation:auto;mix-blend-mode:normal;color-interpolation:sRGB;color-interpolation-filters:linearRGB;solid-color:#000000;solid-opacity:1;fill:#00ffff;fill-opacity:1;fill-rule:nonzero;stroke:#00ffff;stroke-width:0.53149605;stroke-linecap:square;stroke-linejoin:round;stroke-miterlimit:4;stroke-dasharray:none;stroke-dashoffset:0;stroke-opacity:1;color-rendering:auto;image-rendering:auto;shape-rendering:auto;text-rendering:auto;enable-background:accumulate" id="rect5116-0" width="67.14286" height="11.428572" x="-47.444931" y="879.33044"/>
    <text xml:space="preserve" style="font-style:normal;font-weight:normal;font-size:40px;line-height:125%;font-family:sans-serif;letter-spacing:0px;word-spacing:0px;fill:#000000;fill-opacity:1;stroke:none;stroke-width:1px;stroke-linecap:butt;stroke-linejoin:miter;stroke-opacity:1" x="29.697929" y="892.18762" id="text5118-9" sodipodi:linespacing="125%"><tspan sodipodi:role="line" id="tspan5120-36" x="29.697929" y="892.18762" style="font-size:20px">Dcoupe (puissance : 50; vitesse : 0.5)</tspan></text>
    <rect style="color:#000000;clip-rule:nonzero;display:inline;overflow:visible;visibility:visible;opacity:1;isolation:auto;mix-blend-mode:normal;color-interpolation:sRGB;color-interpolation-filters:linearRGB;solid-color:#000000;solid-opacity:1;fill:#00ff00;fill-opacity:1;fill-rule:nonzero;stroke:#00ffff;stroke-width:0.53149605;stroke-linecap:square;stroke-linejoin:round;stroke-miterlimit:4;stroke-dasharray:none;stroke-dashoffset:0;stroke-opacity:1;color-rendering:auto;image-rendering:auto;shape-rendering:auto;text-rendering:auto;enable-background:accumulate" id="rect5116-0-0" width="67.14286" height="11.428572" x="-47.444931" y="899.33044"/>
    <text xml:space="preserve" style="font-style:normal;font-weight:normal;font-size:40px;line-height:125%;font-family:sans-serif;letter-spacing:0px;word-spacing:0px;fill:#000000;fill-opacity:1;stroke:none;stroke-width:1px;stroke-linecap:butt;stroke-linejoin:miter;stroke-opacity:1" x="29.697929" y="912.18762" id="text5118-9-6" sodipodi:linespacing="125%"><tspan sodipodi:role="line" id="tspan5120-36-2" x="29.697929" y="912.18762" style="font-size:20px">Dcoupe (puissance : 50; vitesse : 0.5)</tspan></text>
  </g>
</svg>